<?xml version="1.0" encoding="utf-8"?>
<!-- Generator: Adobe Illustrator 27.3.1, SVG Export Plug-In . SVG Version: 6.00 Build 0)  -->
<svg version="1.1" id="Layer_1" xmlns="http://www.w3.org/2000/svg" xmlns:xlink="http://www.w3.org/1999/xlink" x="0px" y="0px"
	 viewBox="0 0 2689.5 685.2" style="enable-background:new 0 0 2689.5 685.2;" xml:space="preserve">
<style type="text/css">
	.st0{fill:#FFFFFF;}
</style>
<g>
	<path class="st0" d="M533.7,405.7c0-141.7-114.9-256.5-256.6-256.5l0,0l0,0H148.8V20.8H20.5v128.3h128.3v128.3h128.3
		c70.9,0,128.3,57.4,128.3,128.3S347.9,534,277.1,534s-128.3-57.4-128.3-128.3V277.4H20.5v128.3l0,0l0,0l0,0l0,0
		c0,141.7,114.9,256.5,256.6,256.5C418.8,662.3,533.7,547.4,533.7,405.7L533.7,405.7L533.7,405.7z"/>
	<g>
		<path class="st0" d="M847.2,444.8c0,51.7-38.5,93.1-87.2,93.1c-31.1,0-54.6-14.7-67.8-39.6v35.9h-34.1V277.7h34.1v113.6
			c13.2-24.9,36.6-39.6,67.8-39.6C808.8,351.7,847.2,393.1,847.2,444.8z M814.3,444.8c0-34.1-27.1-60.8-61.2-60.8
			c-34.8,0-60.8,25.6-60.8,60.8s26,60.8,60.8,60.8C787.2,505.6,814.3,478.9,814.3,444.8z"/>
		<path class="st0" d="M1059.4,355.4v178.8h-33.7v-36.6c-13.2,25.6-36.6,40.3-68.1,40.3c-48.4,0-86.8-41.4-86.8-93.1
			s38.5-93.1,86.8-93.1c31.5,0,55,14.7,68.1,40.3v-36.6H1059.4z M1025.7,444.8c0-35.2-26-60.8-61.2-60.8
			c-34.1,0-61.2,26.7-61.2,60.8s27.1,60.8,61.2,60.8C999.7,505.6,1025.7,480,1025.7,444.8z"/>
		<path class="st0" d="M1281,445.2c0,52.4-40.7,92.7-92.3,92.7c-52,0-92.3-40.3-92.3-92.7c0-52.8,40.3-93.4,92.3-93.4
			C1240.4,351.7,1281,392.4,1281,445.2z M1129.4,445.2c0,34.1,25.6,60.4,59.3,60.4c33.3,0,59.4-26.4,59.4-60.4
			c0-34.8-26-61.2-59.4-61.2C1155,384,1129.4,410.4,1129.4,445.2z"/>
		<g>
			<path class="st0" d="M1360.9,512.2l13.9-25.3c13.9,13.6,39.6,22.7,60.1,22.7c20.9,0,34.8-10.6,34.8-24.2
				c0-39.9-103.3-13.2-103.3-79.1c0-32.6,27.5-54.6,67.8-54.6c24.2,0,49.5,7.7,64.8,22.7l-14.7,25.6c-13.2-12.8-37.4-19.8-53.5-19.8
				c-18.7,0-30.8,9.2-30.8,23.1c0,36.3,103.7,13.2,103.7,81c0,30.8-27.8,53.5-68.5,53.5C1407.4,537.9,1378.1,527.6,1360.9,512.2z"/>
			<path class="st0" d="M1696.4,355.4l-102.2,244H1558l31.5-71.4l-72.2-172.6h36.3l53.1,133.4l53.5-133.4H1696.4z"/>
			<path class="st0" d="M1707.4,512.2l13.9-25.3c13.9,13.6,39.6,22.7,60.1,22.7c20.9,0,34.8-10.6,34.8-24.2
				c0-39.9-103.3-13.2-103.3-79.1c0-32.6,27.5-54.6,67.8-54.6c24.2,0,49.5,7.7,64.8,22.7l-14.7,25.6c-13.2-12.8-37.4-19.8-53.5-19.8
				c-18.7,0-30.8,9.2-30.8,23.1c0,36.3,103.7,13.2,103.7,81c0,30.8-27.8,53.5-68.5,53.5C1754,537.9,1724.6,527.6,1707.4,512.2z"/>
			<path class="st0" d="M1982.6,532.7c-5.1,2.2-12.5,3.7-19.4,3.7c-37.7,0-64.5-24.2-64.5-66.7v-82.1h-34.8v-32.2h34.8V307h33.7
				v48.4h48.4v32.2h-48.4v80.6c0,23.1,15.4,36.6,35.2,36.6c4,0,9.5-0.7,13.2-1.8L1982.6,532.7z"/>
			<path class="st0" d="M2172.7,451h-142.9c3.3,34.4,26.7,56.4,59.7,56.4c22.7,0,42.9-10.3,52-26.4l27.1,17.6
				c-13.6,24.2-43.6,39.2-80.2,39.2c-50.9,0-91.6-40.3-91.6-93.8c0-51.7,39.9-92.3,91.2-92.3c48,0,85.4,37.4,85.4,85.4
				C2173.4,441.1,2173.1,446.6,2172.7,451z M2138.6,425.4c-2.2-26.7-23.8-45.4-52-45.4s-49.1,18-55.3,45.4H2138.6z"/>
			<path class="st0" d="M2491.4,426.1v108.1h-33.7V433.1c0-30.4-16.9-49.1-44.3-49.1c-22.3,0-45.4,14.3-45.4,49.1v101.1h-33.7V433.1
				c0-30.4-16.9-49.1-44.7-49.1c-21.6,0-44.7,13.6-44.7,49.1v101.1h-34.1V355.4h34.1v27.8c12.8-23.4,35.9-31.5,56-31.5
				c28.2,0,48,11.4,58.6,35.2c10.3-22,33.7-35.2,59-35.2C2462.5,351.7,2491.4,380.3,2491.4,426.1z"/>
			<path class="st0" d="M2526.6,512.2l13.9-25.3c13.9,13.6,39.6,22.7,60.1,22.7c20.9,0,34.8-10.6,34.8-24.2
				c0-39.9-103.3-13.2-103.3-79.1c0-32.6,27.5-54.6,67.8-54.6c24.2,0,49.5,7.7,64.8,22.7L2650,400c-13.2-12.8-37.4-19.8-53.5-19.8
				c-18.7,0-30.8,9.2-30.8,23.1c0,36.3,103.7,13.2,103.7,81c0,30.8-27.8,53.5-68.5,53.5C2573.1,537.9,2543.8,527.6,2526.6,512.2z"/>
		</g>
	</g>
</g>
</svg>
