<?xml version="1.0" encoding="utf-8"?>
<!-- Generator: Adobe Illustrator 27.3.1, SVG Export Plug-In . SVG Version: 6.00 Build 0)  -->
<svg version="1.1" id="Layer_1" xmlns="http://www.w3.org/2000/svg" xmlns:xlink="http://www.w3.org/1999/xlink" x="0px" y="0px"
	 viewBox="0 0 1237 165" style="enable-background:new 0 0 1237 165;" xml:space="preserve">
<style type="text/css">
	.st0{clip-path:url(#SVGID_00000155122951295931117200000009727225240039065732_);fill:none;stroke:#30ABF7;stroke-width:3;}
	.st1{clip-path:url(#SVGID_00000155122951295931117200000009727225240039065732_);fill:#FFFFFF;}
	.st2{fill:#FFFFFF;}
	.st3{clip-path:url(#SVGID_00000072973121903771630520000011662893035183327920_);fill:#FFFFFF;}
	.st4{clip-path:url(#SVGID_00000078046672857600105760000005636467110704448416_);fill:#FFFFFF;}
</style>
<g>
	<defs>
		<rect id="SVGID_1_" x="8" y="5.8" width="1223" height="153.5"/>
	</defs>
	<clipPath id="SVGID_00000116209512057930977990000005278939875276116631_">
		<use xlink:href="#SVGID_1_"  style="overflow:visible;"/>
	</clipPath>
	
		<path style="clip-path:url(#SVGID_00000116209512057930977990000005278939875276116631_);fill:none;stroke:#30ABF7;stroke-width:3;" d="
		M84.7,7.7C43.4,7.7,10,41.2,10,82.5c0,41.3,33.5,74.8,74.8,74.8h1069.6c41.3,0,74.8-33.5,74.8-74.8c0-41.3-33.5-74.8-74.8-74.8
		H84.7z"/>
	<path style="clip-path:url(#SVGID_00000116209512057930977990000005278939875276116631_);fill:#FFFFFF;" d="M96.7,79.4
		c-0.7-5.4-5.1-9.2-11.1-9.2c-6,0-10.5,3.5-11.8,9.2H96.7z M104,85.5H73.5c0.9,7,5.8,11.5,12.7,11.5c4.9,0,9.2-2.2,11.1-5.7l5.8,3.8
		c-2.9,5.2-9.3,8.4-17.2,8.4c-10.9,0-19.6-8.7-19.6-20.2c0-11.1,8.6-19.9,19.5-19.9c10.3,0,18.3,8,18.3,18.4
		C104.2,82.8,104.1,84.6,104,85.5"/>
	<path style="clip-path:url(#SVGID_00000116209512057930977990000005278939875276116631_);fill:#FFFFFF;" d="M147.7,80.8v22h-7.2
		V81.6c0-6.7-4.1-11.1-10.4-11.1c-6.4,0-10.6,4.4-10.6,11.1v21.2h-7.3V64.3h7.3V71c2.4-4.7,6.7-7.5,12.2-7.5
		C141.6,63.5,147.7,70.1,147.7,80.8"/>
	<path style="clip-path:url(#SVGID_00000116209512057930977990000005278939875276116631_);fill:#FFFFFF;" d="M177.3,102.5
		c-1.1,0.5-2.7,0.8-4.2,0.8c-8.1,0-13.8-5.2-13.8-14.3V71.2h-7.4v-6.9h7.4V53.9h7.2v10.4h10.4v6.9h-10.4v17.3c0,5,3.3,7.9,7.5,7.9
		c0.9,0,2-0.2,2.8-0.4L177.3,102.5z"/>
	<path style="clip-path:url(#SVGID_00000116209512057930977990000005278939875276116631_);fill:#FFFFFF;" d="M210.7,79.4
		c-0.7-5.4-5.1-9.2-11.1-9.2c-6,0-10.5,3.5-11.8,9.2H210.7z M218,85.5h-30.5c0.9,7,5.8,11.5,12.7,11.5c4.9,0,9.2-2.2,11.1-5.7
		l5.8,3.8c-2.9,5.2-9.3,8.4-17.2,8.4c-10.9,0-19.6-8.7-19.6-20.2c0-11.1,8.6-19.9,19.5-19.9c10.3,0,18.3,8,18.3,18.4
		C218.2,82.8,218.1,84.6,218,85.5"/>
	<path style="clip-path:url(#SVGID_00000116209512057930977990000005278939875276116631_);fill:#FFFFFF;" d="M248.2,64.4l-0.8,7.1
		c-1.3-0.6-3-0.9-4.6-0.9c-4.7,0-9.4,3.9-9.4,10.6v21.7h-7.3V64.3h7.3v6c1.7-4,6.1-6.8,10-6.8C245.4,63.5,247.1,63.9,248.2,64.4"/>
	<path style="clip-path:url(#SVGID_00000116209512057930977990000005278939875276116631_);fill:#FFFFFF;" d="M288.5,83.5
		c0-7.3-5.8-13.1-13.1-13.1c-7.4,0-13,5.5-13,13.1s5.6,13.1,13,13.1C282.7,96.6,288.5,90.9,288.5,83.5 M295.5,83.5
		c0,11.1-8.2,20-18.7,20c-6.7,0-11.7-3.2-14.5-8.5v21.7h-7.3V64.3h7.3V72c2.8-5.4,7.8-8.5,14.5-8.5
		C287.3,63.5,295.5,72.4,295.5,83.5"/>
	<path style="clip-path:url(#SVGID_00000116209512057930977990000005278939875276116631_);fill:#FFFFFF;" d="M325.5,64.4l-0.8,7.1
		c-1.3-0.6-3-0.9-4.6-0.9c-4.7,0-9.4,3.9-9.4,10.6v21.7h-7.3V64.3h7.3v6c1.7-4,6.1-6.8,10-6.8C322.7,63.5,324.4,63.9,325.5,64.4"/>
	<path style="clip-path:url(#SVGID_00000116209512057930977990000005278939875276116631_);fill:#FFFFFF;" d="M339.6,102.8h-7.3V64.3
		h7.3V102.8z M340.9,51.9c0,2.7-2.3,4.9-4.9,4.9c-2.7,0-4.9-2.2-4.9-4.9c0-2.6,2.2-4.9,4.9-4.9C338.6,47.1,340.9,49.3,340.9,51.9"/>
	<path style="clip-path:url(#SVGID_00000116209512057930977990000005278939875276116631_);fill:#FFFFFF;" d="M347,98l3-5.4
		c3,2.9,8.5,4.9,12.9,4.9c4.5,0,7.4-2.3,7.4-5.2c0-8.6-22.1-2.8-22.1-17c0-7,5.9-11.7,14.5-11.7c5.2,0,10.6,1.7,13.9,4.9l-3.1,5.5
		c-2.8-2.8-8-4.3-11.5-4.3c-4,0-6.6,2-6.6,5c0,7.8,22.2,2.8,22.2,17.4c0,6.6-6,11.5-14.7,11.5C357,103.6,350.7,101.4,347,98"/>
	<path style="clip-path:url(#SVGID_00000116209512057930977990000005278939875276116631_);fill:#FFFFFF;" d="M413.6,79.4
		c-0.7-5.4-5.1-9.2-11.1-9.2c-6,0-10.5,3.5-11.8,9.2H413.6z M420.9,85.5h-30.5c0.9,7,5.8,11.5,12.7,11.5c4.9,0,9.2-2.2,11.1-5.7
		l5.8,3.8c-2.9,5.2-9.3,8.4-17.2,8.4c-10.9,0-19.6-8.7-19.6-20.2c0-11.1,8.6-19.9,19.5-19.9c10.3,0,18.3,8,18.3,18.4
		C421.1,82.8,421,84.6,420.9,85.5"/>
	<path style="clip-path:url(#SVGID_00000116209512057930977990000005278939875276116631_);fill:#FFFFFF;" d="M454.4,102.8h-7.3V64.3
		h7.3V102.8z M455.7,51.9c0,2.7-2.3,4.9-4.9,4.9c-2.7,0-4.9-2.2-4.9-4.9c0-2.6,2.2-4.9,4.9-4.9C453.4,47.1,455.7,49.3,455.7,51.9"/>
	<path style="clip-path:url(#SVGID_00000116209512057930977990000005278939875276116631_);fill:#FFFFFF;" d="M500,80.8v22h-7.2V81.6
		c0-6.7-4.1-11.1-10.4-11.1c-6.4,0-10.6,4.4-10.6,11.1v21.2h-7.3V64.3h7.3V71c2.4-4.7,6.7-7.5,12.2-7.5
		C493.9,63.5,500,70.1,500,80.8"/>
	<path style="clip-path:url(#SVGID_00000116209512057930977990000005278939875276116631_);fill:#FFFFFF;" d="M529.6,102.5
		c-1.1,0.5-2.7,0.8-4.2,0.8c-8.1,0-13.8-5.2-13.8-14.3V71.2h-7.4v-6.9h7.4V53.9h7.2v10.4h10.4v6.9h-10.4v17.3c0,5,3.3,7.9,7.5,7.9
		c0.9,0,2-0.2,2.8-0.4L529.6,102.5z"/>
	<path style="clip-path:url(#SVGID_00000116209512057930977990000005278939875276116631_);fill:#FFFFFF;" d="M563,79.4
		c-0.7-5.4-5.1-9.2-11.1-9.2c-6,0-10.5,3.5-11.8,9.2H563z M570.3,85.5h-30.5c0.9,7,5.8,11.5,12.7,11.5c4.9,0,9.2-2.2,11.1-5.7
		l5.8,3.8c-2.9,5.2-9.3,8.4-17.2,8.4c-10.9,0-19.6-8.7-19.6-20.2c0-11.1,8.6-19.9,19.5-19.9c10.3,0,18.3,8,18.3,18.4
		C570.5,82.8,570.4,84.6,570.3,85.5"/>
</g>
<rect x="578.5" y="47.6" class="st2" width="7.3" height="55.2"/>
<rect x="595.8" y="47.6" class="st2" width="7.3" height="55.2"/>
<g>
	<defs>
		<rect id="SVGID_00000148619878042072903130000007128890242512282759_" x="8" y="5.8" width="1223" height="153.5"/>
	</defs>
	<clipPath id="SVGID_00000027600216767823176280000003203820623981518990_">
		<use xlink:href="#SVGID_00000148619878042072903130000007128890242512282759_"  style="overflow:visible;"/>
	</clipPath>
	<path style="clip-path:url(#SVGID_00000027600216767823176280000003203820623981518990_);fill:#FFFFFF;" d="M620.4,102.8h-7.3V64.3
		h7.3V102.8z M621.7,51.9c0,2.7-2.3,4.9-4.9,4.9c-2.7,0-4.9-2.2-4.9-4.9c0-2.6,2.2-4.9,4.9-4.9C619.4,47.1,621.7,49.3,621.7,51.9"/>
	<path style="clip-path:url(#SVGID_00000027600216767823176280000003203820623981518990_);fill:#FFFFFF;" d="M661.6,83.1
		c0-7.4-5.6-12.8-13.1-12.8c-7.3,0-13.1,5.7-13.1,12.8c0,7.3,5.8,12.9,13.1,12.9C656,96.1,661.6,90.6,661.6,83.1 M668.8,64.3v36.1
		c0,11-8.8,18.5-20,18.5c-6.7,0-14-2.4-17.3-6.5l3.8-5c3,3.2,8.1,5,13.6,5c6.7,0,12.8-5.2,12.8-12v-6.1c-2.8,5.4-7.8,8.5-14.6,8.5
		c-10.4,0-18.6-8.8-18.6-19.7c0-10.9,8.2-19.6,18.6-19.6c6.8,0,11.8,3.2,14.6,8.5v-7.7H668.8z"/>
	<path style="clip-path:url(#SVGID_00000027600216767823176280000003203820623981518990_);fill:#FFFFFF;" d="M707.2,79.4
		c-0.7-5.4-5.1-9.2-11.1-9.2c-6,0-10.5,3.5-11.8,9.2H707.2z M714.5,85.5H684c0.9,7,5.8,11.5,12.7,11.5c4.9,0,9.2-2.2,11.1-5.7
		l5.8,3.8c-2.9,5.2-9.3,8.4-17.2,8.4c-10.9,0-19.6-8.7-19.6-20.2c0-11.1,8.6-19.9,19.5-19.9c10.3,0,18.3,8,18.3,18.4
		C714.6,82.8,714.6,84.6,714.5,85.5"/>
	<path style="clip-path:url(#SVGID_00000027600216767823176280000003203820623981518990_);fill:#FFFFFF;" d="M758.2,80.8v22h-7.2
		V81.6c0-6.7-4.1-11.1-10.4-11.1c-6.4,0-10.6,4.4-10.6,11.1v21.2h-7.3V64.3h7.3V71c2.4-4.7,6.7-7.5,12.2-7.5
		C752,63.5,758.2,70.1,758.2,80.8"/>
	<path style="clip-path:url(#SVGID_00000027600216767823176280000003203820623981518990_);fill:#FFFFFF;" d="M786.1,103.6
		c-11.2,0-19.8-8.7-19.8-19.9c0-11.3,8.6-20.1,19.8-20.1c7.4,0,13.7,3.7,16.3,9.4l-6.2,3.4c-1.6-3.5-5.5-5.8-10.1-5.8
		c-7.3,0-12.8,5.8-12.8,13.2c0,7.3,5.5,13,12.8,13c4.9,0,9.1-2.3,11.1-6.2l6.3,2.9C800.5,99.5,793.9,103.6,786.1,103.6"/>
	<path style="clip-path:url(#SVGID_00000027600216767823176280000003203820623981518990_);fill:#FFFFFF;" d="M837.3,79.4
		c-0.7-5.4-5.1-9.2-11.1-9.2c-6,0-10.5,3.5-11.8,9.2H837.3z M844.6,85.5h-30.5c0.9,7,5.8,11.5,12.7,11.5c4.9,0,9.2-2.2,11.1-5.7
		l5.8,3.8c-2.9,5.2-9.3,8.4-17.2,8.4c-10.9,0-19.6-8.7-19.6-20.2c0-11.1,8.6-19.9,19.5-19.9c10.3,0,18.3,8,18.3,18.4
		C844.7,82.8,844.7,84.6,844.6,85.5"/>
	<path style="clip-path:url(#SVGID_00000027600216767823176280000003203820623981518990_);fill:#FFFFFF;" d="M904.2,83.5
		c0-7.3-5.8-13.1-13.1-13.1c-7.4,0-13,5.5-13,13.1s5.6,13.1,13,13.1C898.4,96.6,904.2,90.9,904.2,83.5 M911.2,83.5
		c0,11.1-8.2,20-18.7,20c-6.7,0-11.7-3.2-14.5-8.5v21.7h-7.3V64.3h7.3V72c2.8-5.4,7.8-8.5,14.5-8.5C903,63.5,911.2,72.4,911.2,83.5"
		/>
</g>
<rect x="919.2" y="47.6" class="st2" width="7.3" height="55.2"/>
<g>
	<defs>
		<rect id="SVGID_00000121967874525608635560000009230360930774100868_" x="8" y="5.8" width="1223" height="153.5"/>
	</defs>
	<clipPath id="SVGID_00000145770049118924824140000006378450024029803698_">
		<use xlink:href="#SVGID_00000121967874525608635560000009230360930774100868_"  style="overflow:visible;"/>
	</clipPath>
	<path style="clip-path:url(#SVGID_00000145770049118924824140000006378450024029803698_);fill:#FFFFFF;" d="M966.8,83.5
		c0-7.6-5.6-13.1-13.1-13.1c-7.3,0-13.1,5.8-13.1,13.1c0,7.3,5.8,13.1,13.1,13.1C961.2,96.6,966.8,91.1,966.8,83.5 M974,64.3v38.5
		h-7.2v-7.9c-2.8,5.5-7.8,8.7-14.6,8.7c-10.4,0-18.6-8.9-18.6-20c0-11.1,8.2-20,18.6-20c6.8,0,11.8,3.2,14.6,8.7v-7.9H974z"/>
	<path style="clip-path:url(#SVGID_00000145770049118924824140000006378450024029803698_);fill:#FFFFFF;" d="M1005.4,102.5
		c-1.1,0.5-2.7,0.8-4.2,0.8c-8.1,0-13.8-5.2-13.8-14.3V71.2H980v-6.9h7.4V53.9h7.2v10.4h10.4v6.9h-10.4v17.3c0,5,3.3,7.9,7.5,7.9
		c0.9,0,2-0.2,2.8-0.4L1005.4,102.5z"/>
	<path style="clip-path:url(#SVGID_00000145770049118924824140000006378450024029803698_);fill:#FFFFFF;" d="M1024,60.8v3.5h10.4
		v6.9H1024v31.5h-7.2V71.2h-7.5v-6.9h7.5v-3.9c0-9.1,5.7-14.4,13.8-14.4c1.5,0,3.1,0.3,4.2,0.8l-0.4,6.4c-0.8-0.2-1.9-0.4-2.8-0.4
		C1027.3,52.8,1024,55.7,1024,60.8"/>
	<path style="clip-path:url(#SVGID_00000145770049118924824140000006378450024029803698_);fill:#FFFFFF;" d="M1043.2,83.6
		c0,7.3,5.5,13,12.7,13c7.1,0,12.7-5.7,12.7-13c0-7.5-5.6-13.2-12.7-13.2C1048.7,70.5,1043.2,76.1,1043.2,83.6 M1075.7,83.6
		c0,11.3-8.7,19.9-19.8,19.9c-11.1,0-19.8-8.7-19.8-19.9c0-11.3,8.6-20.1,19.8-20.1C1067,63.5,1075.7,72.3,1075.7,83.6"/>
	<path style="clip-path:url(#SVGID_00000145770049118924824140000006378450024029803698_);fill:#FFFFFF;" d="M1105.7,64.4l-0.8,7.1
		c-1.3-0.6-3-0.9-4.5-0.9c-4.7,0-9.4,3.9-9.4,10.6v21.7h-7.3V64.3h7.3v6c1.7-4,6.1-6.8,10-6.8C1102.9,63.5,1104.6,63.9,1105.7,64.4"
		/>
	<path style="clip-path:url(#SVGID_00000145770049118924824140000006378450024029803698_);fill:#FFFFFF;" d="M1172.6,79.5v23.3h-7.2
		V81c0-6.5-3.6-10.6-9.5-10.6c-4.8,0-9.7,3.1-9.7,10.6v21.8h-7.2V81c0-6.5-3.6-10.6-9.6-10.6c-4.6,0-9.6,2.9-9.6,10.6v21.8h-7.3
		V64.3h7.3v6c2.7-5,7.7-6.8,12-6.8c6,0,10.3,2.4,12.6,7.6c2.2-4.7,7.2-7.6,12.6-7.6C1166.4,63.5,1172.6,69.7,1172.6,79.5"/>
</g>
</svg>
