<?xml version="1.0" encoding="utf-8"?>
<!-- Generator: Adobe Illustrator 27.3.1, SVG Export Plug-In . SVG Version: 6.00 Build 0)  -->
<svg version="1.1" id="Layer_1" xmlns="http://www.w3.org/2000/svg" xmlns:xlink="http://www.w3.org/1999/xlink" x="0px" y="0px"
	 viewBox="0 0 1295 1080" style="enable-background:new 0 0 1295 1080;" xml:space="preserve">
<style type="text/css">
	.st0{fill:#0066C8;}
	.st1{fill:none;}
</style>
<path class="st0" d="M609.1,871.2c-2.8,0-6,2.2-9.4,6.5c-3.2,4.1-6.4,10.1-9.4,18c7.8-6.5,15.7-13.2,23.5-20.1c0-0.1,0-0.2-0.1-0.3
	C613,872.6,611.4,871.2,609.1,871.2z"/>
<path class="st0" d="M574.5,875.1c-1-2.5-2.6-3.8-5-3.8c-3.1,0-6.4,2.3-9.9,6.9c-3.5,4.6-6.8,11.3-9.9,20
	c-2.5,7.1-4.6,15.3-6.4,24.8l-1.2,6.9c-0.6,2.4-3.9,3.6-10,3.6c-2.3,0-3.8-0.2-4.6-0.4c-0.8-0.3-1.2-0.6-1.2-1c0-0.5,0.3-2,1-4.6
	c0.7-2.6,1.2-5.5,1.7-8.5l7.3-39.7c1.1-5.8,0.2-8.7-2.7-8.7c-1.2,0-2.6,0.6-4.4,1.8c-1.7,1.2-3.7,3-6,5.3c-0.4,0.5-0.8,0.4-1.2-0.1
	c-0.5-0.5-0.5-1-0.2-1.5c4.3-5.1,8.1-8.7,11.6-10.9c3.4-2.2,6.8-3.3,10.1-3.3c3.8,0,6.3,1.3,7.5,4c1.2,2.7,1.3,6.4,0.4,11.3
	l-2.6,14.8c3.9-9.6,8.3-17.1,13.4-22.4c5.3-5.6,10.9-8.4,16.8-8.4c4.5,0,7.8,1.8,9.9,5.5c2.1,3.7,2.4,9.5,1,17.6l-1.3,7.3
	c3.9-9.7,8.4-17.1,13.4-22.3c5.2-5.4,10.7-8.1,16.4-8.1c3.5,0,6.2,1.1,8.2,3.2c17.6-15.9,35.3-32.7,53-50.5
	c23.5-23.3,45.8-46.9,66.9-70.8c-10.2-9.4-16.4-20.6-18.6-33.5c-2.6-15.3-0.3-31.6,7.1-48.8c7.4-17.2,19-33.6,34.9-49.3
	c12.3-12.3,25.4-22.2,39.4-29.9c14-7.6,28.1-12.8,42.3-15.5c9.5-1.8,18.8-2.4,27.8-1.9c13.1-21.5,25.1-42.8,36.1-63.9
	c-3-1.7-5.1-4.3-6.3-7.7c-2.5-6.9-2.6-16.9-0.4-30L921,397c2.2-13.2,2.5-22.9,0.8-29.2c-1.6-6.3-5.2-9.5-10.7-9.5
	c-6.6,0-13.9,5-21.8,15c-8,10-15.6,25-23,45.1c-5.7,15.4-10.6,33.8-14.9,55.3l-3.7,20.5c-0.8,5.5-8.5,8.2-23,8.2
	c-5.2,0-8.8-0.3-10.7-1c-1.9-0.7-2.9-1.4-2.9-2.3c0-1.1,0.8-4.7,2.3-10.7c1.5-6,2.8-12.6,3.9-19.7l13.6-72.4
	c2.5-13.4,2.6-23.1,0.4-29c-2.2-5.9-6-8.8-11.5-8.8c-7.1,0-14.7,5.3-22.8,16c-8.1,10.7-15.7,26.1-22.8,46.3
	c-5.8,16.3-10.7,35.4-14.9,57.4l-2.8,16.1c-1.4,5.5-9.1,8.2-23,8.2c-5.2,0-8.8-0.3-10.7-1c-1.9-0.7-2.9-1.4-2.9-2.3
	c0-1.1,0.8-4.7,2.3-10.7c1.5-6,2.8-12.6,3.9-19.7l16.9-91.8c2.5-13.4,0.4-20.2-6.2-20.2c-2.7,0-6.1,1.4-10.1,4.1
	c-4,2.7-8.6,6.9-13.8,12.3c-0.8,1.1-1.8,1-2.9-0.2c-1.1-1.2-1.2-2.4-0.4-3.5c9.9-11.8,18.8-20.2,26.7-25.3c8-5.1,15.8-7.6,23.5-7.6
	c8.8,0,14.5,3.1,17.3,9.3c2.7,6.2,3,14.9,0.8,26.1l-6,34.2c8.9-22.2,19.2-39.5,30.9-51.9c12.2-12.9,25.2-19.3,38.9-19.3
	c10.4,0,18,4.3,22.8,12.8c4.8,8.5,5.6,22.1,2.3,40.7l-3,16.8c9.1-22.4,19.4-39.6,31-51.6c12.1-12.5,24.7-18.7,37.9-18.7
	c10.7,0,18.3,4.4,22.8,13.2c4.5,8.8,5,22.5,1.4,41.1l-6.1,33.8c4.9-12.2,9.3-24.4,13.4-36.4c23.3-69,31.1-131.7,23.7-188
	c-7.6-56.4-33.3-101.1-77.3-134.1C844,14.5,757.8,7.4,651.8,43.2C545.9,79.1,435.7,153.6,321.4,267
	C254.8,334.1,197,404.3,147.9,477.6C98.8,550.8,62.1,622,38,691.3C13.8,760.5,5.3,823.6,12.4,880.5c7,56.9,33.1,102.2,78,135.9
	c66.5,49.9,153.1,56.9,259.9,20.8c71.8-24.2,144.9-65.8,219.4-124.8l4.7-24.8C575.4,881.8,575.5,877.6,574.5,875.1z M602.7,346.6
	c12.5-7.8,24.5-11.7,36-11.7c5.5,0,11.1,1,16.9,3.1c4.6,1.7,8.8,4.1,12.4,7.4c4.9-3.8,9.2-8.4,12.7-13.8c0.5-0.8,1.6-1,3.1-0.4
	c1.5,0.6,2.1,1.1,1.9,1.6l-23.9,129.6c-2.5,12.9-1,19.3,4.5,19.3c2.7,0,6-1.3,9.9-3.9c3.8-2.6,8-6.1,12.3-10.5
	c0.8-0.8,1.8-0.7,2.9,0.4c1.1,1.1,1.2,2.1,0.4,2.9c-8.5,10.2-16.5,18-24.1,23.7c-7.5,5.6-14.9,8.4-22,8.4c-8.8,0-14.7-3.2-17.9-9.7
	c-3.2-6.4-3.6-16.7-1.4-30.7l4.9-27.5c-3.5,7.3-7.4,14.2-11.5,20.5c-10.4,15.9-21.5,28.1-33.3,36.4c-11.8,8.4-23.3,12.5-34.6,12.5
	c-9.3,0-16.7-3.4-22-10.1c-5.3-6.7-6.9-17.6-4.7-32.7c1.9-14,6.6-28.3,14.2-43c7.5-14.7,16.9-28.4,28-41.1
	C578.5,364.7,590.2,354.4,602.7,346.6z M354.1,626.2c1.5-3.6,3.4-7.2,5.5-10.6c2.1-3.4,3.5-5,4-4.7l110.1,42.8c0.9,0.2,0.6,2.2-1,6
	c-1.6,3.8-3.4,7.3-5.5,10.6c-2.1,3.3-3.6,4.8-4.5,4.6L353,632.3C352.2,631.9,352.5,629.8,354.1,626.2z M475.8,865.5
	c-0.1,1-0.8,2.3-2,4c-1.2,1.7-2.5,2.6-3.8,2.6c-0.1,0-1.3-0.2-3.5-0.5c-2.2-0.4-4.9-0.7-8-1.1c-2-0.2-4-0.4-6.1-0.5l-7.5,42.3
	c-0.7,4.2-0.4,7.2,1.1,9.2s4,2.9,7.7,2.9c2.4,0,4.8-0.5,7.2-1.6c2.4-1.1,5-2.7,7.7-5c0.2-0.2,0.6-0.1,1.2,0.4
	c0.5,0.5,0.6,0.9,0.3,1.2c-5.5,5.2-10.3,9-14.5,11.3c-4.2,2.3-8.4,3.5-12.5,3.5c-2.8,0-5.5-0.5-8-1.4c-2.5-0.9-4.3-2.8-5.5-5.5
	c-1.2-2.7-1.3-6.7-0.4-11.9l6.9-37.7c0.7-3.9,0.7-6.5,0-7.7c-0.7-1.2-2.7-1.8-6-1.8c-0.5,0-0.7-0.5-0.6-1.4c0.1-0.9,0.3-1.4,0.6-1.4
	c5.7,0,10.3-1.6,14-4.8c3.6-3.2,6.5-6.8,8.6-10.9c0.2-0.5,0.9-0.6,2-0.4c1.1,0.2,1.5,0.5,1.4,1l-2.6,14.5c2.4-0.1,4.7-0.2,6.9-0.3
	c3.3-0.2,6.2-0.5,8.7-0.7c2.5-0.2,4.4-0.4,5.7-0.4c0.6,0,1,0.2,1.2,0.7C475.9,864.6,475.9,865.1,475.8,865.5z M477,499.1
	c-7.7,0-16.1-0.1-25.3-0.4c-9.2-0.3-19.4-0.4-30.7-0.4c-10.2,0-20,0.1-29.6,0.4c-9.6,0.3-18.2,0.4-25.9,0.4c-0.6,0-0.8-0.8-0.8-2.5
	c0-1.6,0.3-2.5,0.8-2.5c9.9,0,17.4-0.7,22.6-2.1c5.2-1.4,9.1-4.1,11.7-8.2c2.6-4.1,4.6-10.1,6-18.1l33.3-190.5
	c1.9-9.6,2-16,0.2-19.1c-1.8-3.1-6.1-4.7-13-4.7h-4.9c-8.8,0-17.8,3-27,8.8c-9.2,5.9-17.4,13.6-24.7,23.2
	c-7.3,9.6-12.7,20.3-16.3,32.1c-0.3,0.8-1.2,1.1-2.7,0.8c-1.5-0.3-2.1-0.8-1.9-1.6c1.1-3.8,2.5-9.3,4.3-16.3
	c1.8-7,3.6-14.6,5.6-22.8c1.9-8.2,3.8-16.2,5.6-23.9c1.8-7.7,3.1-14,3.9-18.9c0.5-0.8,1.6-1.2,3.1-1c1.5,0.1,2.1,0.6,1.9,1.4
	c-0.6,4.1,1.2,6.6,5.3,7.4c4.1,0.8,7.7,1.2,10.7,1.2c10.1,0.3,22,0.6,35.6,0.8c13.6,0.3,26.8,0.4,39.7,0.4c16.5,0,30.3-0.2,41.6-0.6
	c11.2-0.4,21.5-0.6,30.9-0.6c7.7,0,13.6-0.6,17.9-1.9c4.3-1.2,7.3-4,9.3-8.4c0.5-0.8,1.5-1.2,2.9-1c1.4,0.1,1.9,0.8,1.6,1.9
	c-1.1,4.4-2.6,10.4-4.5,18.1c-1.9,7.7-3.8,15.8-5.6,24.3c-1.8,8.5-3.4,16.4-4.7,23.7c-1.4,7.3-2.3,12.7-2.9,16.3
	c-0.3,1.1-1.2,1.6-2.9,1.4c-1.6-0.1-2.3-0.8-2.1-1.9c2.2-11.5,1.7-22-1.4-31.5c-3.2-9.5-8.2-17.1-15-22.8
	c-6.9-5.8-15.2-8.6-25.1-8.6h-4.5c-7.4,0-12.2,1.7-14.4,5.1c-2.2,3.4-4.1,9.9-5.8,19.5l-33.3,189.7c-1.4,8-1.6,14-0.8,18.1
	c0.8,4.1,3.7,6.9,8.6,8.2c4.9,1.4,12.5,2.1,22.6,2.1c0.5,0,0.8,0.8,0.8,2.5C477.9,498.2,477.6,499.1,477,499.1z M513.3,919.8
	c-3.7,4.4-7.1,7.8-10.3,10.2c-3.2,2.4-6.6,3.6-10.1,3.6c-3.9,0-6.5-1.5-7.7-4.4c-1.2-3-1.2-7.3,0-13l7.3-37c1.2-5.8,0.3-8.7-2.7-8.7
	c-1.2,0-2.6,0.6-4.4,1.8c-1.7,1.2-3.6,3-5.8,5.3c-0.5,0.5-1,0.4-1.4-0.1c-0.5-0.5-0.5-1-0.2-1.5c4.3-5.1,8.1-8.7,11.6-10.9
	c3.4-2.2,6.8-3.3,10.1-3.3c3.8,0,6.3,1.3,7.5,4c1.2,2.7,1.3,6.4,0.4,11.3l-7.5,39.1c-0.6,3.3-0.6,5.5,0,6.7c0.6,1.1,1.4,1.7,2.3,1.7
	c1.3,0,2.7-0.6,4.3-1.8c1.5-1.2,3.3-2.7,5.2-4.4c0.5-0.5,0.9-0.5,1.4,0C513.8,918.9,513.8,919.3,513.3,919.8z M504.8,843.3
	c-3.1,0-5.5-0.9-7.4-2.7c-1.8-1.8-2.8-4.3-2.8-7.6c0-2.8,0.9-5.2,2.8-6.9c1.8-1.8,4.3-2.7,7.4-2.7c3.1,0,5.5,0.9,7.2,2.7
	c1.7,1.8,2.6,4.1,2.6,6.9C514.6,839.9,511.3,843.3,504.8,843.3z M521,770.6c0.1-1.4,0.3-2.1,0.5-2.1c5.9,0,10.7-0.7,14.2-2.1
	c3.5-1.4,6.3-3.9,8.4-7.5c2.1-3.6,3.6-8.7,4.8-15l28-158.3c1.6-10,1.1-16.3-1.4-18.8c-2.5-2.5-8-3.8-16.4-3.8
	c-0.9,0-1.2-0.7-0.9-2.1s0.6-2.1,0.9-2.1c5.5,0,11.5,0.2,18,0.5c6.5,0.3,13.3,0.5,20.3,0.5c6.2,0,12.5-0.3,19-1c6.5-0.7,13-1,19.7-1
	c14.4,0,26.2,1.8,35.6,5.3c9.3,3.5,16.1,8.7,20.2,15.6c4.1,6.8,5.1,15.2,3.1,25c-2.7,12.5-10.1,23.8-22.1,33.7
	c-7.7,6.4-17.2,11.6-28.7,15.6c8.8,1.2,16.6,3.5,23.4,6.8c10.7,5.2,18.4,12.4,23.1,21.5c4.7,9.1,5.9,19.6,3.6,31.5
	c-2.3,11.6-7.7,22.1-16.2,31.3c-8.5,9.2-19.1,16.5-31.8,21.9c-12.7,5.4-26.3,8-40.9,8c-5.7,0-12.8-0.3-21.4-1
	c-8.5-0.7-16.1-1-22.7-1c-7.5,0-14.7,0.1-21.5,0.3c-6.8,0.2-12.9,0.3-18.1,0.3C521,772.7,520.8,772,521,770.6z"/>
<path class="st1" d="M679.7,865.9c-2.7,0-5.2,1.2-7.4,3.6c-2.2,2.4-4.1,5.7-5.7,9.9c-1.5,3.8-2.6,8.1-3.5,12.8
	c4.6-1.2,8.7-2.8,12.3-4.7c5.7-3,9-7.4,9.8-13.1c0.5-2.6,0.2-4.7-0.8-6.2C683.4,866.7,681.8,865.9,679.7,865.9z"/>
<path class="st1" d="M768.9,748.4c11.7,8.8,26.9,10,45.7,3.7c18.8-6.3,38.1-19.4,57.9-39.3c12.2-12.1,22.5-24.6,31.1-37.5
	c8.6-12.9,14.9-25.5,19-37.6c4.1-12.1,5.5-23.1,4.2-33c-1.3-9.9-5.8-17.8-13.6-23.6c-10.8-8.1-24.4-9.7-41.1-5.1
	c-5.1,8.1-10.3,16.2-15.7,24.4c-29.5,44.5-62.7,88.2-99.6,130.9C758.8,738.2,762.8,743.9,768.9,748.4z"/>
<path class="st0" d="M871.9,576c-1.4,0.4-2.9,0.8-4.4,1.3c-18.6,6.3-38,19.4-58.1,39.3c-11.7,11.8-21.9,24.1-30.5,37
	c-8.6,12.9-15.1,25.4-19.3,37.6c-4.3,12.2-5.8,23.3-4.5,33.2c0.3,2.4,0.8,4.7,1.5,6.8c36.9-42.7,70.1-86.3,99.6-130.9
	C861.6,592.3,866.8,584.1,871.9,576z"/>
<path class="st0" d="M611.1,652.7c13.2,0,24.2-4.8,33-14.5c8.8-9.7,14.6-21.4,17.6-35c2.1-8.7,2.1-15.8,0.2-21.4
	c-1.9-5.6-5.5-9.8-10.8-12.7c-5.2-2.8-12-4.3-20.2-4.3c-4.1,0-7.5,0.8-10.3,2.4c-2.7,1.6-4.9,4.2-6.5,7.7c-1.6,3.5-2.9,8.2-3.8,13.8
	l-11.3,63.6c1.8,0.1,3.6,0.1,5.1,0.1C608.6,652.6,610.8,652.7,611.1,652.7z"/>
<path class="st0" d="M564.3,464.3c3.3,6.7,8,10.1,14,10.1c6.6,0,13.2-2.6,19.8-7.8c6.6-5.2,12.7-11.9,18.3-20.2
	c5.6-8.2,10.4-16.9,14.4-26.1c4-9.2,6.6-17.6,8-25.3c2.2-12.3,1.4-22.1-2.5-29.2c-3.8-7.1-9.9-10.7-18.1-10.7
	c-7.7,0-15.2,3.2-22.6,9.5c-7.4,6.3-14,15-19.8,25.9c-5.8,11-9.9,23.6-12.3,37.9C560.7,445.6,561,457.6,564.3,464.3z"/>
<path class="st0" d="M599.8,766.5c16.9,0,29.9-4.3,39.2-13c9.2-8.7,15.4-20.9,18.6-36.6c3.6-16.2,2.2-29.4-4.4-39.7
	c-6.6-10.3-19.7-15.4-39.3-15.4c-2.3,0-5.9,0.1-10.8,0.2c-1.9,0-4,0.2-6.1,0.4l-14.6,83.9c-1.4,7.1-1.1,12.2,0.7,15.4
	C584.9,764.9,590.4,766.5,599.8,766.5z"/>
<path class="st0" d="M1082,464.7c2.3,3.2,3.8,4.6,4.6,4.2l94.4-70.2c0.7-0.7,0.2-2.8-1.5-6.3c-1.7-3.5-3.7-6.9-6-10.3
	c-2.3-3.4-3.8-4.7-4.5-4l-94.9,70.4c-0.6,0.3,0,2.2,1.8,5.9C1077.7,458.1,1079.7,461.5,1082,464.7z"/>
<path class="st0" d="M634.7,918.4c-1.9,1.8-3.6,3.3-5.1,4.4c-1.5,1.2-2.9,1.8-4.2,1.8c-1.1,0-1.9-0.6-2.4-1.7
	c-0.5-1.1-0.5-3.4,0.1-6.7l5.7-31.7c1.5-8.1,1.3-14-0.6-17.8c-0.5-0.9-1-1.8-1.7-2.5c-4.3,3.8-8.5,7.6-12.7,11.3
	c0.6,2.7,0.5,6.8-0.4,12.3l-5.3,28.3c-1,5.7-0.9,10,0.2,13c1.1,3,3.6,4.4,7.6,4.4c3.4,0,6.8-1.2,10-3.6c3.2-2.4,6.6-5.8,10.3-10.2
	c0.5-0.5,0.5-0.9,0-1.4C635.6,917.9,635.1,917.9,634.7,918.4z"/>
<path class="st0" d="M568.5,918.9c-0.5,3.1-1,5.9-1.7,8.5c-0.7,2.6-1,4.2-1,4.6c0,0.4,0.4,0.7,1.2,1c0.8,0.3,2.4,0.4,4.6,0.4
	c6.3,0,9.6-1.2,10-3.6l1.6-8.8c1.8-9.3,4-17.3,6.4-23.9c0.2-0.5,0.4-1,0.6-1.4c-6.8,5.7-13.7,11.3-20.5,16.7L568.5,918.9z"/>
<path class="st0" d="M699.9,863.6c-2.4-1.7-6.1-2.5-10.9-2.5c-5.6,0-10.8,1.1-15.7,3.3c-4.9,2.2-9.2,5.1-13,8.7
	c-3.8,3.6-6.9,7.7-9.4,12.3c-2.5,4.6-4.2,9.2-5.2,13.8c-1.1,5.8-1,11.4,0.1,16.7c1.1,5.3,3.6,9.7,7.5,13.2c3.9,3.4,9.2,5.2,16.1,5.2
	c4.4,0,9-0.9,13.8-2.7s9.5-4.9,14-9.3c0.2-0.2,0.1-0.6-0.3-1.1c-0.4-0.5-0.7-0.6-1-0.4c-2.6,2-5.4,3.4-8.3,4.3
	c-2.9,0.8-5.5,1.2-7.7,1.2c-4.9,0-8.7-1.5-11.6-4.5c-2.8-3-4.7-7-5.5-12c-0.7-4.5-0.8-9.4-0.1-14.8c2.9-0.5,5.8-1.2,8.7-2
	c5.8-1.6,11-3.5,15.7-5.8c4.7-2.3,8.5-4.8,11.3-7.6c2.8-2.8,4.4-5.8,4.8-8.9C703.4,867.6,702.3,865.2,699.9,863.6z M685.2,874.4
	c-0.8,5.7-4.1,10.1-9.8,13.1c-3.6,1.9-7.6,3.4-12.3,4.7c0.8-4.7,2-8.9,3.5-12.8c1.6-4.1,3.5-7.4,5.7-9.9c2.2-2.4,4.7-3.6,7.4-3.6
	c2.1,0,3.7,0.8,4.7,2.3C685.4,869.8,685.7,871.8,685.2,874.4z"/>
<path class="st0" d="M797.2,864.1c-0.2-0.5-0.6-0.7-1.2-0.7c-1.1,0-3.1,0.1-6.1,0.4c-3,0.2-6.3,0.5-9.9,0.7c-0.3,0-0.6,0-0.8,0.1
	l1.6-10.5c2.4-15.5,4.9-27.3,7.5-35.3c2.6-8,5.9-12,9.8-12c1.8,0,2.8,0.7,3.2,2.1c0.4,1.4,0.7,3,0.9,4.8c0.2,1.8,0.9,3.4,2.1,4.8
	c1.2,1.4,3.4,2.1,6.6,2.1c2.1,0,4-0.7,5.7-2c1.7-1.3,2.7-3.1,3-5.5c0.5-2.8-0.7-5.2-3.6-7.2c-2.8-2-6.9-2.9-12.3-2.9
	c-5.6,0-10.4,0.8-14.6,2.5c-4.2,1.7-7.7,4.5-10.7,8.6c-3,4.1-5.5,9.7-7.7,16.8c-2.1,7.1-4.1,16.1-5.9,26.9c-0.5,3-1.6,5-3.3,6
	c-1.7,1.1-4.5,1.6-8.3,1.6c-0.4,0-0.6,0.5-0.6,1.4c-0.1,1,0.1,1.4,0.6,1.4c3,0,5.1,0.2,6.5,0.5c1.4,0.4,2.2,1.2,2.5,2.5
	c0.3,1.3,0.2,3.4-0.3,6.4l-9.1,62.8c-1.5,10.3-2.8,18.1-3.6,23.5c-0.9,5.3-1.8,8.9-2.6,10.8c-0.8,1.8-1.8,2.8-3,2.8
	c-1.5,0-2.5-0.7-2.9-2c-0.4-1.4-0.7-3-1-4.8c-0.2-1.8-0.9-3.4-1.9-4.8c-1-1.4-2.9-2-5.8-2c-1.9,0-3.6,0.6-5.2,1.8
	c-1.6,1.2-2.6,3-2.9,5.3c-0.5,2.7,0.7,5.1,3.6,7.1c2.8,2,6.9,3,12.3,3c5.5,0,10-1.4,13.6-4.2c3.6-2.8,6.6-7.5,9.1-14.1
	c2.4-6.6,4.5-15.6,6.1-27l9.7-65.7c0.3,0,0.7,0.1,1,0.1c3.3,0.4,6.1,0.7,8.5,1.1c2.4,0.4,3.6,0.5,3.7,0.5c1.2,0,2.4-0.8,3.6-2.4
	c1.2-1.6,1.9-2.9,2.1-3.8C797.4,865.1,797.4,864.6,797.2,864.1z"/>
<path class="st0" d="M851.7,866c-3.9-3.3-9.2-4.9-15.8-4.9c-6.3,0-12.2,1.5-17.6,4.6c-5.5,3.1-10.1,7.4-13.9,12.9
	c-3.8,5.5-6.4,11.9-7.8,19.1c-1.2,6.5-1.2,12.6,0,18.1c1.2,5.6,3.7,10.1,7.6,13.5c3.9,3.4,9,5.2,15.6,5.2c5.6,0,11.1-1.4,16.5-4.1
	c5.5-2.7,10.3-6.9,14.5-12.4c4.2-5.5,7.1-12.3,8.6-20.4c1.4-6.9,1.5-13.1,0.2-18.6C858.2,873.6,855.6,869.3,851.7,866z M841.7,905.6
	c-1.3,7.5-3.4,13.4-6.1,17.9c-2.8,4.4-6.1,6.7-9.9,6.7c-2.6,0-4.9-1.1-6.8-3.2c-1.9-2.1-3.4-5-4.4-8.7c-1-3.7-1.6-7.9-1.7-12.8
	c-0.1-4.9,0.3-10,1.2-15.3c1.5-8.4,3.7-14.6,6.6-18.7c2.8-4,5.9-6,9.3-6c2.7,0,5,1.1,6.9,3.2c1.9,2.1,3.4,5.1,4.4,8.9
	c1.1,3.8,1.6,8.1,1.7,12.9C843.1,895.2,842.7,900.2,841.7,905.6z"/>
<path class="st0" d="M922.9,863.3c-2-1-4-1.5-5.9-1.5c-3,0-5.8,1.3-8.4,4c-2.6,2.7-5,6.3-7.3,10.9c-2.3,4.6-4.3,9.8-6.1,15.6
	c-0.5,1.7-1.1,3.5-1.6,5.3l3.6-20.4c0.6-3.3,0.7-6.1,0.4-8.4c-0.3-2.3-1.1-4-2.4-5.2c-1.3-1.2-3.3-1.8-5.9-1.8
	c-3.3,0-6.7,1.1-10.1,3.3c-3.4,2.2-7.3,5.8-11.6,10.9c-0.5,0.5-0.5,1,0,1.5c0.5,0.5,0.9,0.6,1.4,0.1c2.3-2.4,4.2-4.2,6-5.3
	c1.7-1.2,3.1-1.8,4.2-1.8c0.9,0,1.7,0.3,2.2,1c0.5,0.7,0.9,1.6,1,2.8c0.1,1.2,0,2.9-0.4,4.9l-7.3,39.7c-0.5,3.1-1.1,5.9-1.8,8.5
	c-0.7,2.6-1.1,4.2-1.1,4.6c0,0.4,0.4,0.7,1.2,1c0.8,0.3,2.4,0.4,4.6,0.4c6.3,0,9.6-1.2,10-3.6c0.7-3.8,1.7-8.1,2.9-13
	c1.2-4.9,2.7-9.8,4.3-14.7c1.6-4.9,3.3-9.5,5-13.6c1.7-4.2,3.4-7.5,5.1-10.1c1.7-2.5,3.1-3.8,4.4-3.8c1.3,0,2.5,0.4,3.6,1.3
	c1.1,0.9,2.3,1.8,3.6,2.7c1.3,0.9,2.8,1.3,4.6,1.3c2.3,0,4.1-0.8,5.5-2.5c1.4-1.7,2.2-3.3,2.3-4.8c0.4-2-0.1-3.9-1.4-5.5
	C926.5,865.7,924.9,864.3,922.9,863.3z"/>
<path class="st0" d="M1071,929.9c-3,0-5.2-0.4-6.6-1.2c-1.4-0.8-2.4-2.1-3-4c-0.6-1.9-1.2-4.4-1.8-7.6l-19.4-97.7
	c-0.1-0.4-0.6-0.6-1.5-0.7c-0.9-0.1-1.5,0.1-1.7,0.5l-49.6,88.6c-4.2,7.6-8.5,13.2-13,16.7c-4.5,3.6-8.3,5.3-11.4,5.3
	c-0.5,0-0.7,0.4-0.7,1.1s0.2,1.1,0.7,1.1c3.1,0,5.7-0.1,7.9-0.4s5-0.4,8.5-0.4c3.8,0,7.7,0.1,11.7,0.4c4,0.2,7.3,0.4,10.1,0.4
	c0.6,0,0.9-0.4,0.9-1.1s-0.2-1.1-0.7-1.1c-4.9,0-8.4-0.7-10.7-2.1c-2.3-1.4-3.2-3.7-2.9-6.8c0.3-3.1,1.8-7.1,4.5-11.9l9.8-17.8h34.5
	l5.2,25.8c1.1,5,0.9,8.4-0.4,10.1c-1.4,1.8-4.3,2.7-8.8,2.7c-0.5,0-0.7,0.4-0.7,1.1s0.2,1.1,0.7,1.1c3.1,0,6.1-0.1,9-0.4
	c2.9-0.2,6.2-0.4,9.9-0.4c3.8,0,7.3,0.1,10.4,0.4c3.1,0.2,6.3,0.4,9.3,0.4c0.5,0,0.7-0.4,0.7-1.1S1071.5,929.9,1071,929.9z
	 M1004.8,886.4l22.5-40.9l8.3,40.9H1004.8z"/>
<path class="st0" d="M1185.4,929.9c-4,0-8-1.9-12-5.7c-4-3.8-8.2-10.1-12.6-18.8c-4.2-8.2-9-19.2-14.4-32.9
	c5.5-2.5,10.2-5.9,14.2-10c4.8-5,7.8-10.9,9-17.8c1.4-7.9-0.3-14-5.2-18.1c-4.9-4.2-13.3-6.2-25.3-6.2c-2.4,0-5.5,0.2-9.3,0.5
	c-3.8,0.4-7.1,0.5-9.8,0.5c-3.8,0-7.4-0.1-10.9-0.3c-3.5-0.2-6.6-0.3-9.3-0.3c-0.5,0-0.7,0.4-0.7,1.1s0.2,1.1,0.7,1.1
	c3.3,0,5.8,0.3,7.3,1c1.5,0.7,2.4,1.8,2.7,3.6c0.2,1.7,0,4.3-0.7,7.7l-14.4,82.4c-0.6,3.3-1.4,5.9-2.3,7.6c-1,1.8-2.4,3-4.3,3.6
	c-1.9,0.7-4.6,1-8,1c-0.5,0-0.7,0.4-0.7,1.1s0.2,1.1,0.7,1.1c2.7,0,5.9-0.1,9.5-0.2c3.6-0.1,7.4-0.2,11.3-0.2c4,0,7.7,0.1,11.1,0.2
	c3.4,0.1,6.5,0.2,9.3,0.2c0.4,0,0.5-0.4,0.5-1.1s-0.2-1.1-0.7-1.1c-3.2,0-5.5-0.3-7-1c-1.5-0.7-2.3-1.9-2.6-3.6
	c-0.2-1.8-0.1-4.3,0.5-7.6l7.1-39.7c0.9,0.1,1.6,0.1,2,0.1c3.6,0,7.1-0.3,10.5-0.9c3.9,12.7,7.5,23,11,31c3.6,8.4,6.8,14.5,9.5,18.3
	c2.7,3.8,4.9,5.7,6.4,5.7c2.1,0,5.3,0,9.6,0c4.3,0,10,0,17.3,0c0.4,0,0.5-0.4,0.5-1.1S1185.8,929.9,1185.4,929.9z M1142.6,867.5
	c-4.2,3.8-10.1,5.7-17.8,5.7c-0.8,0-2-0.1-3.4-0.3c-0.5-0.1-0.9-0.1-1.3-0.2l6.6-37.1c0.7-3.8,1.4-6.5,2-8.1
	c0.7-1.6,1.6-2.6,2.9-2.9c1.3-0.4,3.3-0.5,5.9-0.5c3.1,0,5.8,0.8,8.2,2.3c2.4,1.5,4.1,4.1,5.1,7.7c1,3.6,1,8.5-0.1,14.5
	C1149.4,857.4,1146.7,863.7,1142.6,867.5z"/>
<path class="st0" d="M1282.4,816c-0.6-0.1-1,0.1-1.2,0.4c-0.8,1.9-2.2,3.1-4,3.6c-1.8,0.5-4.4,0.8-7.7,0.8c-4,0-8.5,0.1-13.3,0.3
	c-4.9,0.2-10.9,0.3-18,0.3c-5.6,0-11.3-0.1-17.2-0.2c-5.9-0.1-11-0.2-15.4-0.4c-1.3,0-2.8-0.2-4.6-0.5c-1.8-0.4-2.6-1.4-2.3-3.2
	c0.1-0.4-0.2-0.6-0.8-0.6c-0.7-0.1-1.1,0.1-1.3,0.4c-0.4,2.1-0.9,4.9-1.7,8.2c-0.8,3.3-1.6,6.8-2.4,10.3c-0.8,3.6-1.6,6.8-2.4,9.9
	c-0.8,3-1.4,5.4-1.9,7c-0.1,0.4,0.1,0.6,0.8,0.7c0.7,0.1,1,0,1.2-0.4c1.5-5.1,3.9-9.7,7-13.9c3.1-4.1,6.7-7.5,10.7-10.1
	c4-2.5,7.9-3.8,11.6-3.8h2.1c3,0,4.8,0.7,5.6,2c0.8,1.4,0.7,4.1-0.1,8.3l-14.4,82.4c-0.6,3.4-1.5,6-2.6,7.8c-1.1,1.8-2.8,3-5.1,3.6
	c-2.3,0.6-5.5,0.9-9.8,0.9c-0.2,0-0.4,0.4-0.4,1.1s0.1,1.1,0.4,1.1c3.3,0,7.1-0.1,11.2-0.2c4.2-0.1,8.4-0.2,12.8-0.2
	c4.9,0,9.3,0.1,13.3,0.2c4,0.1,7.6,0.2,10.9,0.2c0.2,0,0.4-0.4,0.4-1.1s-0.1-1.1-0.4-1.1c-4.4,0-7.6-0.3-9.8-0.9
	c-2.1-0.6-3.4-1.8-3.7-3.6c-0.4-1.8-0.2-4.4,0.4-7.8l14.4-82c0.7-4.2,1.5-7,2.5-8.5c0.9-1.5,3-2.2,6.2-2.2h2c4.3,0,7.9,1.2,10.9,3.7
	c3,2.5,5.1,5.8,6.5,9.9c1.4,4.1,1.6,8.6,0.6,13.6c-0.1,0.5,0.2,0.7,0.9,0.8c0.7,0.1,1.1-0.1,1.2-0.6c0.2-1.5,0.7-3.9,1.2-7
	c0.6-3.1,1.3-6.6,2-10.2c0.8-3.7,1.6-7.2,2.4-10.5c0.8-3.3,1.5-5.9,2-7.8C1283.2,816.3,1283,816.1,1282.4,816z"/>
<path class="st0" d="M926.7,502.8c8,0,15.6-2.8,23-8.4c7.4-5.6,15.4-13.5,23.9-23.7c1.1-1.1,1.1-2.2,0-3.3c-1.1-1.1-2.2-1.1-3.3,0
	c-4.4,4.1-8.3,7.5-11.7,10.3c-3.4,2.7-6.7,4.1-9.7,4.1c-2.5,0-4.3-1.3-5.6-3.9c-1.2-2.6-1.2-7.7,0.2-15.4l7.1-39.4
	c-10.1,25.4-21.9,51.2-35.4,77.2C918.3,501.9,922.1,502.8,926.7,502.8z"/>
<path class="st0" d="M913,581.1c7.7,5.8,12.3,13.7,13.6,23.6c1.3,9.9-0.1,20.9-4.2,33c-4.1,12.1-10.4,24.7-19,37.6
	c-8.6,12.9-18.9,25.4-31.1,37.5c-19.8,19.9-39.1,32.9-57.9,39.3c-18.8,6.3-34,5.1-45.7-3.7c-6-4.5-10.1-10.2-12.2-17.1
	c-3.4,3.9-6.8,7.8-10.2,11.7c1.9,1.8,3.9,3.5,6.1,5.1c9.9,7.4,21.2,12.5,34,15.1c12.8,2.7,26.3,2.9,40.6,0.7
	c14.3-2.2,28.7-7,43.3-14.5c14.6-7.5,28.6-17.9,41.9-31.2c16.2-15.8,27.9-32.2,34.9-49.3c7.1-17.1,9.2-33.4,6.3-48.7
	c-2.9-15.4-11.4-28.4-25.5-39c-10.5-7.9-22.3-13.1-35.4-15.5c-4.3-0.8-8.8-1.3-13.2-1.6c-2.4,4-4.9,7.9-7.4,11.9
	C888.5,571.3,902.2,573,913,581.1z"/>
<path class="st0" d="M1089.5,772.7c4.1,0,10.3,0,18.5,0c8.2,0,19.3,0,33.2,0c0.7,0,1-0.7,1-2.1c0-1.4-0.3-2.1-1-2.1
	c-7.7,0-15.4-3.6-23.1-10.9c-7.6-7.3-15.7-19.3-24.3-36.1c-8.1-15.8-17.3-36.9-27.7-63.3c10.5-4.9,19.6-11.3,27.3-19.3
	c9.2-9.6,15-21,17.3-34.2c2.7-15.3-0.6-26.9-9.9-34.9c-9.3-8-25.5-12-48.6-12c-4.6,0-10.5,0.3-17.8,1c-7.3,0.7-13.6,1-18.8,1
	c-7.3,0-14.3-0.2-21-0.5c-6.7-0.3-12.7-0.5-18-0.5c-0.9,0-1.4,0.7-1.4,2.1s0.5,2.1,1.4,2.1c6.4,0,11.1,0.6,14,1.9
	c3,1.3,4.7,3.5,5.1,6.8c0.5,3.3,0,8.3-1.4,14.9L966.7,745c-1.1,6.4-2.6,11.3-4.4,14.7c-1.8,3.4-4.6,5.8-8.2,7
	c-3.6,1.3-8.8,1.9-15.4,1.9c-0.9,0-1.4,0.7-1.4,2.1c0,1.4,0.5,2.1,1.4,2.1c5.2,0,11.3-0.1,18.3-0.3c7-0.2,14.2-0.3,21.7-0.3
	c7.7,0,14.9,0.1,21.4,0.3c6.5,0.2,12.5,0.3,18,0.3c0.7,0,1-0.7,1-2.1c0-1.4-0.5-2.1-1.4-2.1c-6.2,0-10.7-0.6-13.5-1.9
	c-2.9-1.2-4.5-3.6-5-7c-0.5-3.4-0.1-8.3,1-14.7l13.6-76.4c1.7,0.1,3,0.1,3.8,0.1c6.9,0,13.6-0.6,20.2-1.7
	c7.5,24.4,14.5,44.2,21,59.5c7,16.2,13,27.9,18.3,35.2C1082.4,769,1086.5,772.7,1089.5,772.7z M1058.7,648.6
	c-8,7.3-19.4,10.9-34.2,10.9c-1.6,0-3.8-0.2-6.5-0.5c-0.9-0.1-1.7-0.2-2.4-0.4l12.7-71.3c1.4-7.3,2.7-12.5,3.9-15.6
	c1.3-3.1,3.1-5,5.6-5.6c2.5-0.7,6.3-1,11.3-1c5.9,0,11.2,1.5,15.7,4.4c4.6,3,7.8,7.9,9.7,14.9c1.9,7,1.9,16.2-0.2,27.9
	C1071.9,629.2,1066.7,641.3,1058.7,648.6z"/>
</svg>
