<?xml version="1.0" encoding="utf-8"?>
<!-- Generator: Adobe Illustrator 27.3.1, SVG Export Plug-In . SVG Version: 6.00 Build 0)  -->
<svg version="1.1" id="Layer_1" xmlns="http://www.w3.org/2000/svg" xmlns:xlink="http://www.w3.org/1999/xlink" x="0px" y="0px"
	 viewBox="0 0 1010 1080" style="enable-background:new 0 0 1010 1080;" xml:space="preserve">
<style type="text/css">
	.st0{fill:#0066C8;}
</style>
<path class="st0" d="M916.6,66.6c-66.5-49.9-152.7-57-258.7-21.2C552,81.3,441.8,155.8,327.5,269.2
	C260.9,336.3,203.1,406.5,154,479.8C104.9,553,68.2,624.2,44.1,693.5c-24.2,69.2-32.7,132.3-25.6,189.2c7,56.9,33.1,102.2,78,135.9
	c66.5,49.9,153.1,56.9,259.9,20.8c106.8-36,216.5-110.5,329.2-223.4c69.1-68.7,128-139.8,176.7-213.4
	c48.6-73.6,84.6-144.9,107.9-213.9c23.3-69,31.1-131.7,23.7-188C986.3,144.3,960.6,99.6,916.6,66.6z"/>
</svg>
