<?xml version="1.0" encoding="utf-8"?>
<!-- Generator: Adobe Illustrator 27.3.1, SVG Export Plug-In . SVG Version: 6.00 Build 0)  -->
<svg version="1.1" id="Layer_1" xmlns="http://www.w3.org/2000/svg" xmlns:xlink="http://www.w3.org/1999/xlink" x="0px" y="0px"
	 viewBox="0 0 1337 1080" style="enable-background:new 0 0 1337 1080;" xml:space="preserve">
<style type="text/css">
	.st0{fill:#FFFFFF;}
</style>
<g>
	<path class="st0" d="M1038.5,345.6c3.1,4.5,5.3,6.5,6.5,5.9l131.7-97.9c1-1,0.3-3.9-2.1-8.7c-2.4-4.9-5.2-9.7-8.4-14.3
		c-3.2-4.7-5.4-6.5-6.3-5.6l-132.3,98.2c-0.8,0.4,0.1,3.1,2.5,8.2C1032.5,336.3,1035.3,341.1,1038.5,345.6z"/>
	<path class="st0" d="M181.1,632.2c2.9-4.6,5.4-9.5,7.7-14.8c2.2-5.2,2.7-8,1.4-8.3L36.6,549.5c-0.7-0.5-2.6,1.7-5.6,6.5
		c-3,4.8-5.5,9.7-7.7,14.8c-2.1,5.1-2.6,7.9-1.5,8.6l153,59.3C176.1,639,178.2,636.8,181.1,632.2z"/>
	<path class="st0" d="M191.4,901.6c-1.8,0-4.5,0.2-7.9,0.5c-3.5,0.3-7.5,0.7-12.2,1c-3,0.2-6.2,0.3-9.6,0.4l3.6-20.3
		c0.2-0.7-0.5-1.1-2-1.4c-1.5-0.2-2.4,0-2.7,0.6c-3,5.6-7,10.7-12,15.1c-5,4.5-11.5,6.7-19.5,6.7c-0.5,0-0.8,0.7-0.9,2
		c-0.1,1.3,0.2,2,0.9,2c4.6,0,7.4,0.8,8.4,2.5c1,1.7,1,5.2,0,10.7l-9.7,52.6c-1.3,7.3-1.2,12.8,0.5,16.6c1.7,3.8,4.2,6.4,7.7,7.7
		c3.5,1.3,7.2,2,11.2,2c5.8,0,11.6-1.6,17.5-4.8c5.9-3.2,12.6-8.5,20.2-15.8c0.5-0.5,0.4-1.1-0.4-1.7c-0.7-0.7-1.3-0.8-1.6-0.5
		c-3.8,3.1-7.4,5.5-10.8,6.9c-3.4,1.5-6.7,2.2-10,2.2c-5.1,0-8.7-1.4-10.7-4.1c-2-2.7-2.5-7-1.5-12.8l10.5-58.9
		c2.9,0.1,5.7,0.3,8.5,0.6c4.4,0.5,8.1,1,11.2,1.5c3.1,0.5,4.7,0.7,4.8,0.7c1.8,0,3.6-1.2,5.3-3.6c1.7-2.4,2.7-4.3,2.9-5.6
		c0.2-0.7,0.1-1.3-0.1-2C192.7,901.9,192.2,901.6,191.4,901.6z"/>
	<path class="st0" d="M243.5,978.3c-2.6,2.5-5,4.5-7.2,6.2c-2.2,1.7-4.1,2.5-6,2.5c-1.3,0-2.4-0.8-3.2-2.4c-0.8-1.6-0.8-4.7,0-9.3
		l10.4-54.6c1.3-6.8,1.2-12-0.5-15.8c-1.7-3.7-5.1-5.6-10.4-5.6c-4.6,0-9.3,1.5-14.1,4.6c-4.8,3.1-10.2,8.1-16.1,15.3
		c-0.5,0.7-0.4,1.4,0.2,2.1c0.7,0.7,1.3,0.8,2,0.1c3-3.3,5.7-5.8,8.1-7.4c2.4-1.7,4.4-2.5,6.1-2.5c4.1,0,5.4,4.1,3.7,12.2
		l-10.2,51.6c-1.7,7.9-1.7,14,0,18.1c1.7,4.1,5.2,6.2,10.7,6.2c5,0,9.7-1.7,14.1-5.1c4.5-3.4,9.3-8.1,14.4-14.3c0.7-0.7,0.7-1.3,0-2
		C244.8,977.6,244.1,977.6,243.5,978.3z"/>
	<path class="st0" d="M233.5,845.8c-4.3,0-7.7,1.2-10.3,3.7c-2.6,2.5-3.8,5.7-3.8,9.7c0,4.6,1.3,8.2,3.8,10.7
		c2.6,2.5,6,3.7,10.3,3.7c9.1,0,13.6-4.8,13.6-14.4c0-4-1.2-7.2-3.6-9.7C241.2,847,237.8,845.8,233.5,845.8z"/>
	<path class="st0" d="M414.6,978.3c-2.6,2.5-5,4.5-7.1,6.2c-2.1,1.7-4,2.5-5.8,2.5c-1.5,0-2.6-0.8-3.3-2.4c-0.7-1.6-0.7-4.7,0.1-9.3
		l7.9-44.2c2.1-11.2,1.9-19.5-0.9-24.8c-2.7-5.3-7.3-7.9-13.8-7.9c-7.9,0-15.5,3.8-22.8,11.3c-7,7.2-13.2,17.6-18.7,31.1l1.8-10.1
		c2-11.2,1.5-19.4-1.4-24.6c-2.9-5.1-7.5-7.7-13.8-7.7c-8.3,0-16.1,3.9-23.4,11.7c-7,7.4-13.2,17.9-18.6,31.3l3.6-20.6
		c1.3-6.8,1.2-12-0.5-15.8c-1.7-3.7-5.1-5.6-10.4-5.6c-4.6,0-9.3,1.5-14.1,4.6c-4.8,3.1-10.2,8.1-16.1,15.3
		c-0.5,0.7-0.4,1.4,0.2,2.1c0.7,0.7,1.2,0.8,1.7,0.1c3.1-3.3,5.9-5.8,8.3-7.4c2.4-1.7,4.4-2.5,6.1-2.5c4,0,5.2,4.1,3.7,12.2
		L267.3,979c-0.7,4.3-1.5,8.3-2.4,11.9c-0.9,3.6-1.4,5.8-1.4,6.4c0,0.5,0.6,0.9,1.7,1.4c1.2,0.4,3.3,0.6,6.5,0.6
		c8.4,0,13.1-1.7,13.9-5l1.7-9.6c2.5-13.3,5.5-24.8,9-34.6c4.3-12.2,8.9-21.5,13.8-27.9c4.9-6.4,9.5-9.7,13.8-9.7
		c3.3,0,5.6,1.8,6.9,5.3c1.3,3.6,1.2,9.4-0.2,17.5l-8.2,43.7c-0.7,4.3-1.4,8.3-2.4,11.9c-0.9,3.6-1.4,5.8-1.4,6.4
		c0,0.5,0.6,0.9,1.7,1.4c1.2,0.4,3.3,0.6,6.4,0.6c8.8,0,13.4-1.7,13.9-5l2.2-12.3c2.5-13,5.5-24.1,9-33.3
		c4.5-12.1,9.1-21.1,13.9-27.2c4.8-6,9.2-9.1,13.1-9.1c3.3,0,5.5,1.9,6.5,5.7c1,3.8,0.8,9.7-0.5,17.6l-7.4,39.4
		c-1.3,7.9-1.2,14,0.2,18.1c1.5,4.1,5,6.2,10.7,6.2c4.8,0,9.4-1.7,13.9-5.1c4.5-3.4,9.3-8.1,14.4-14.3c0.7-0.7,0.7-1.3,0-2
		C416,977.6,415.3,977.6,414.6,978.3z"/>
	<path class="st0" d="M505.6,901.8c-3.4-2.3-8.5-3.5-15.3-3.5c-7.8,0-15.1,1.5-21.8,4.6c-6.8,3.1-12.8,7.1-18.1,12.2
		c-5.3,5-9.7,10.8-13.1,17.1c-3.5,6.4-5.9,12.8-7.2,19.2c-1.5,8.1-1.4,15.9,0.1,23.3c1.6,7.4,5,13.6,10.4,18.4
		c5.4,4.8,12.9,7.2,22.5,7.2c6.1,0,12.5-1.2,19.2-3.7c6.7-2.5,13.2-6.8,19.5-12.9c0.3-0.3,0.2-0.8-0.4-1.5c-0.6-0.7-1-0.8-1.4-0.5
		c-3.6,2.8-7.5,4.8-11.5,6c-4.1,1.2-7.7,1.7-10.8,1.7c-6.8,0-12.2-2.1-16.1-6.3c-4-4.2-6.5-9.8-7.7-16.7c-1-6.3-1.1-13.1-0.1-20.6
		c4.1-0.8,8.1-1.7,12.1-2.8c8-2.2,15.3-4.9,21.8-8.1c6.5-3.1,11.8-6.7,15.8-10.7c4-4,6.2-8.1,6.7-12.4
		C510.5,907.5,509,904.2,505.6,901.8z M485.1,917c-1.2,7.9-5.7,14-13.6,18.2c-5,2.6-10.7,4.8-17.1,6.5c1.1-6.5,2.7-12.4,4.8-17.8
		c2.2-5.8,4.9-10.4,7.9-13.8c3.1-3.4,6.5-5.1,10.3-5.1c3,0,5.2,1.1,6.6,3.2C485.4,910.4,485.8,913.3,485.1,917z"/>
	<path class="st0" d="M641.3,902.6c-0.2-0.7-0.8-1-1.6-1c-1.5,0-4.3,0.2-8.6,0.5c-4.2,0.3-8.8,0.7-13.8,1c-0.4,0-0.8,0-1.2,0.1
		l2.2-14.7c3.3-21.7,6.8-38.1,10.4-49.2c3.6-11.2,8.2-16.7,13.6-16.7c2.5,0,4,1,4.5,3c0.5,2,0.9,4.2,1.2,6.7c0.3,2.5,1.3,4.7,3,6.7
		c1.7,2,4.7,3,9.2,3c3,0,5.6-0.9,7.9-2.7c2.3-1.8,3.7-4.4,4.2-7.7c0.7-4-1-7.3-5-10c-4-2.7-9.7-4.1-17.1-4.1
		c-7.8,0-14.6,1.2-20.3,3.5c-5.8,2.3-10.8,6.3-14.9,12c-4.1,5.7-7.7,13.5-10.7,23.4c-3,9.9-5.7,22.4-8.2,37.5
		c-0.7,4.1-2.2,6.9-4.6,8.4c-2.4,1.5-6.2,2.2-11.5,2.2c-0.5,0-0.8,0.7-0.9,2c-0.1,1.3,0.2,2,0.9,2c4.1,0,7.2,0.2,9.1,0.7
		c1.9,0.5,3.1,1.7,3.5,3.5c0.4,1.8,0.3,4.8-0.4,8.9l-12.7,87.6c-2.2,14.4-3.8,25.3-5.1,32.7c-1.2,7.4-2.4,12.4-3.6,15
		c-1.2,2.6-2.6,3.8-4.2,3.8c-2.1,0-3.5-1-4.1-2.9c-0.6-1.9-1-4.1-1.4-6.7c-0.3-2.6-1.2-4.8-2.6-6.7c-1.4-1.9-4.1-2.9-8.1-2.9
		c-2.6,0-5.1,0.8-7.3,2.5c-2.2,1.7-3.6,4.1-4.1,7.4c-0.7,3.8,1,7.1,5,9.9c4,2.8,9.7,4.2,17.1,4.2c7.6,0,13.9-1.9,19-5.8
		c5-3.9,9.3-10.4,12.7-19.6c3.4-9.2,6.2-21.7,8.6-37.6l13.6-91.7c0.5,0,1,0.1,1.5,0.1c4.5,0.5,8.5,1,11.8,1.5c3.3,0.5,5,0.7,5.2,0.7
		c1.7,0,3.3-1.1,5-3.3c1.7-2.2,2.6-4,3-5.3C641.6,903.9,641.5,903.3,641.3,902.6z"/>
	<path class="st0" d="M717.3,905.2c-5.5-4.5-12.8-6.8-22.1-6.8c-8.8,0-17,2.2-24.6,6.4c-7.6,4.3-14.1,10.3-19.4,18
		c-5.3,7.7-8.9,16.6-10.9,26.7c-1.7,9.1-1.7,17.5,0,25.3c1.7,7.8,5.2,14.1,10.5,18.9c5.4,4.8,12.6,7.2,21.7,7.2
		c7.8,0,15.5-1.9,23.1-5.7c7.6-3.8,14.3-9.6,20.2-17.2c5.9-7.7,9.9-17.2,12-28.4c2-9.6,2.1-18.2,0.2-25.9
		C726.4,915.9,722.8,909.7,717.3,905.2z M703.4,960.4c-1.8,10.4-4.7,18.7-8.6,24.9c-3.9,6.2-8.5,9.3-13.8,9.3
		c-3.6,0-6.8-1.5-9.4-4.5c-2.6-3-4.7-7-6.1-12.2c-1.4-5.1-2.2-11.1-2.4-17.9c-0.2-6.8,0.4-13.9,1.7-21.3c2.1-11.7,5.2-20.4,9.2-26.1
		c4-5.6,8.3-8.4,12.9-8.4c3.8,0,7,1.5,9.7,4.5c2.6,3,4.7,7.1,6.2,12.4c1.5,5.3,2.3,11.3,2.4,18C705.4,945.9,704.8,953,703.4,960.4z"
		/>
	<path class="st0" d="M816.6,901.5c-2.8-1.4-5.5-2.1-8.2-2.1c-4.1,0-8,1.9-11.7,5.6c-3.6,3.7-7,8.8-10.2,15.1
		c-3.1,6.4-6,13.6-8.6,21.7c-0.8,2.4-1.5,4.8-2.2,7.3l5.1-28.4c0.8-4.6,1-8.5,0.6-11.7c-0.4-3.1-1.5-5.5-3.3-7.2
		c-1.8-1.7-4.6-2.5-8.2-2.5c-4.6,0-9.3,1.5-14.1,4.6c-4.8,3.1-10.2,8.1-16.1,15.3c-0.7,0.7-0.7,1.4,0,2.1c0.7,0.7,1.3,0.8,2,0.1
		c3.1-3.3,5.9-5.8,8.3-7.4c2.4-1.7,4.3-2.5,5.8-2.5c1.3,0,2.4,0.5,3.1,1.4c0.7,0.9,1.2,2.2,1.4,4c0.2,1.7,0,4-0.5,6.8L749.6,979
		c-0.7,4.3-1.5,8.3-2.5,11.9c-1,3.6-1.5,5.8-1.5,6.4c0,0.5,0.6,0.9,1.7,1.4c1.2,0.4,3.3,0.6,6.5,0.6c8.8,0,13.4-1.7,13.9-5
		c1-5.3,2.4-11.3,4.1-18.1c1.7-6.8,3.7-13.6,6-20.5c2.2-6.9,4.5-13.2,6.9-19c2.4-5.8,4.8-10.5,7.1-14c2.3-3.6,4.4-5.3,6.2-5.3
		c1.8,0,3.5,0.6,5.1,1.9c1.6,1.2,3.3,2.5,5.1,3.7c1.8,1.2,4,1.9,6.5,1.9c3.1,0,5.7-1.2,7.7-3.5c2-2.3,3.1-4.5,3.2-6.7
		c0.5-2.8-0.2-5.4-2-7.7C821.7,904.7,819.4,902.9,816.6,901.5z"/>
	<path class="st0" d="M1023.2,994.4c-4.1,0-7.2-0.5-9.2-1.6c-2-1.1-3.4-2.9-4.2-5.6c-0.8-2.6-1.7-6.2-2.5-10.7l-27-136.2
		c-0.2-0.5-0.9-0.8-2.1-1c-1.2-0.2-2,0.1-2.4,0.7l-69.2,123.6c-5.8,10.6-11.8,18.4-18.1,23.3c-6.3,5-11.6,7.4-15.9,7.4
		c-0.7,0-1,0.5-1,1.5s0.3,1.5,1,1.5c4.3,0,8-0.2,11-0.5c3.1-0.3,7-0.5,11.8-0.5c5.3,0,10.7,0.2,16.2,0.5c5.5,0.3,10.2,0.5,14,0.5
		c0.8,0,1.2-0.5,1.2-1.5s-0.3-1.5-1-1.5c-6.8,0-11.7-1-14.9-3c-3.1-2-4.5-5.1-4.1-9.4c0.4-4.3,2.5-9.8,6.3-16.6l13.6-24.8H975
		l7.3,36c1.5,6.9,1.3,11.7-0.6,14.1c-1.9,2.5-6,3.7-12.3,3.7c-0.7,0-1,0.5-1,1.5s0.3,1.5,1,1.5c4.3,0,8.5-0.2,12.5-0.5
		c4.1-0.3,8.6-0.5,13.8-0.5c5.3,0,10.1,0.2,14.5,0.5c4.4,0.3,8.7,0.5,13,0.5c0.7,0,1-0.5,1-1.5S1023.9,994.4,1023.2,994.4z
		 M930.8,933.6l31.3-57l11.5,57H930.8z"/>
	<path class="st0" d="M1182.8,994.4c-5.6,0-11.2-2.6-16.7-7.9c-5.5-5.3-11.4-14-17.6-26.2c-5.8-11.5-12.5-26.8-20.1-45.9
		c7.6-3.5,14.3-8.2,19.8-14c6.7-6.9,10.9-15.2,12.5-24.8c2-11.1-0.4-19.5-7.2-25.3c-6.8-5.8-18.5-8.7-35.2-8.7
		c-3.3,0-7.6,0.2-12.9,0.7c-5.3,0.5-9.8,0.7-13.6,0.7c-5.3,0-10.4-0.1-15.3-0.4c-4.9-0.2-9.2-0.4-13-0.4c-0.7,0-1,0.5-1,1.5
		s0.3,1.5,1,1.5c4.6,0,8,0.5,10.2,1.4c2.1,0.9,3.4,2.6,3.7,5c0.3,2.4,0,6-1,10.8l-20.1,114.9c-0.8,4.6-1.9,8.2-3.2,10.7
		c-1.3,2.5-3.3,4.2-6,5.1c-2.6,0.9-6.4,1.4-11.2,1.4c-0.7,0-1,0.5-1,1.5s0.3,1.5,1,1.5c3.8,0,8.2-0.1,13.3-0.2
		c5-0.2,10.3-0.2,15.8-0.2c5.6,0,10.8,0.1,15.5,0.2c4.7,0.2,9.1,0.2,13,0.2c0.5,0,0.7-0.5,0.7-1.5s-0.3-1.5-1-1.5
		c-4.5,0-7.7-0.5-9.8-1.4c-2.1-0.9-3.3-2.6-3.6-5.1c-0.3-2.5-0.1-6,0.7-10.7l9.9-55.4c1.2,0.1,2.2,0.1,2.8,0.1c5,0,9.8-0.4,14.6-1.3
		c5.4,17.7,10.5,32.1,15.3,43.2c5,11.7,9.5,20.3,13.3,25.6c3.8,5.3,6.8,7.9,8.9,7.9c3,0,7.4,0,13.4,0s14,0,24.1,0
		c0.5,0,0.7-0.5,0.7-1.5S1183.2,994.4,1182.8,994.4z M1093.4,914.9c-0.6-0.1-1.2-0.2-1.8-0.3l9.2-51.7c1-5.3,1.9-9.1,2.9-11.3
		c0.9-2.2,2.3-3.6,4.1-4.1c1.8-0.5,4.5-0.7,8.2-0.7c4.3,0,8.1,1.1,11.4,3.2c3.3,2.2,5.7,5.8,7.1,10.8c1.4,5,1.4,11.8-0.1,20.2
		c-1.8,12.2-5.6,21-11.4,26.3c-5.8,5.3-14.1,7.9-24.8,7.9C1097,915.2,1095.4,915.1,1093.4,914.9z"/>
	<path class="st0" d="M1318,835.5c-0.8-0.1-1.4,0.1-1.7,0.6c-1.2,2.6-3,4.3-5.6,5.1c-2.6,0.7-6.2,1.1-10.8,1.1
		c-5.6,0-11.8,0.1-18.6,0.4c-6.8,0.2-15.1,0.4-25.1,0.4c-7.8,0-15.8-0.1-23.9-0.2c-8.2-0.2-15.3-0.3-21.5-0.5c-1.8,0-4-0.2-6.5-0.7
		c-2.5-0.5-3.6-2-3.2-4.5c0.2-0.5-0.2-0.8-1.1-0.9c-0.9-0.1-1.5,0.1-1.9,0.6c-0.5,3-1.3,6.8-2.4,11.4c-1.1,4.6-2.2,9.4-3.3,14.4
		c-1.2,5-2.3,9.6-3.3,13.8c-1.1,4.2-1.9,7.5-2.6,9.8c-0.2,0.5,0.2,0.8,1.1,1c0.9,0.2,1.4,0,1.6-0.5c2.1-7.1,5.4-13.6,9.8-19.4
		c4.4-5.8,9.3-10.5,14.9-14c5.5-3.6,11-5.3,16.2-5.3h3c4.1,0,6.7,1,7.8,2.9c1.1,1.9,1,5.7-0.1,11.5l-20.1,114.9
		c-0.8,4.8-2,8.4-3.6,10.9c-1.6,2.5-3.9,4.1-7.1,5c-3.1,0.8-7.7,1.2-13.6,1.2c-0.3,0-0.5,0.5-0.5,1.5s0.2,1.5,0.5,1.5
		c4.6,0,9.8-0.1,15.6-0.2c5.8-0.2,11.7-0.2,17.9-0.2c6.8,0,12.9,0.1,18.5,0.2c5.5,0.2,10.6,0.2,15.3,0.2c0.3,0,0.5-0.5,0.5-1.5
		s-0.2-1.5-0.5-1.5c-6.1,0-10.7-0.4-13.6-1.2c-3-0.8-4.7-2.5-5.2-5c-0.5-2.5-0.3-6.1,0.5-10.9l20.1-114.4c1-5.8,2.2-9.7,3.5-11.8
		c1.3-2.1,4.2-3.1,8.7-3.1h2.7c6,0,11,1.7,15.1,5.2c4.1,3.5,7.2,8.1,9.1,13.8c1.9,5.7,2.2,12,0.9,19c-0.2,0.7,0.2,1,1.2,1.1
		c1,0.1,1.6-0.2,1.7-0.9c0.3-2.1,0.9-5.4,1.7-9.8c0.8-4.4,1.8-9.1,2.8-14.3c1.1-5.1,2.2-10,3.4-14.6c1.2-4.6,2.1-8.3,2.7-10.9
		C1319.1,835.9,1318.8,835.6,1318,835.5z"/>
	<path class="st0" d="M194.8,386.6c-14.2,0-24.7-0.9-31.6-2.9c-6.9-1.9-10.9-5.7-12.1-11.5c-1.1-5.7-0.8-14.1,1.1-25.2l46.5-264.5
		c2.3-13.4,5-22.5,8-27.3c3.1-4.8,9.8-7.2,20.1-7.2h6.3c13.8,0,25.4,4,35,12.1c9.6,8,16.5,18.6,20.9,31.8c4.4,13.2,5.1,27.8,2,43.9
		c-0.4,1.5,0.6,2.4,2.9,2.6c2.3,0.2,3.6-0.5,4-2c0.8-5,2.1-12.5,4-22.7c1.9-10.1,4.1-21.1,6.6-33c2.5-11.9,5.1-23.1,7.7-33.9
		c2.7-10.7,4.8-19.1,6.3-25.2c0.4-1.5-0.4-2.4-2.3-2.6c-1.9-0.2-3.3,0.3-4,1.4c-2.7,6.1-7,10-12.9,11.8c-5.9,1.7-14.3,2.6-25,2.6
		c-13,0-27.4,0.3-43,0.9c-15.7,0.6-35,0.9-58,0.9c-18,0-36.4-0.2-55.4-0.6c-18.9-0.4-35.5-0.8-49.6-1.1c-4.2,0-9.2-0.6-14.9-1.7
		c-5.7-1.1-8.2-4.6-7.5-10.3c0.4-1.1-0.5-1.8-2.6-2c-2.1-0.2-3.5,0.3-4.3,1.4c-1.1,6.9-3,15.7-5.4,26.4c-2.5,10.7-5.1,21.8-7.8,33.3
		c-2.7,11.5-5.3,22.1-7.7,31.8c-2.5,9.8-4.5,17.3-6,22.7c-0.4,1.1,0.5,1.9,2.6,2.3c2.1,0.4,3.3,0,3.7-1.1
		c5-16.4,12.5-31.4,22.7-44.8c10.1-13.4,21.6-24.2,34.4-32.4C92.6,52.1,105.1,48,117.3,48h6.9c9.6,0,15.6,2.2,18.1,6.6
		c2.5,4.4,2.4,13.3-0.3,26.7L95.5,347c-1.9,11.1-4.7,19.5-8.3,25.2c-3.6,5.7-9.1,9.6-16.4,11.5c-7.3,1.9-17.8,2.9-31.6,2.9
		c-0.8,0-1.1,1.1-1.1,3.4c0,2.3,0.4,3.4,1.1,3.4c10.7,0,22.8-0.2,36.1-0.6c13.4-0.4,27.2-0.6,41.3-0.6c15.7,0,29.9,0.2,42.7,0.6
		c12.8,0.4,24.6,0.6,35.3,0.6c0.8,0,1.1-1.1,1.1-3.4C196,387.7,195.6,386.6,194.8,386.6z"/>
	<path class="st0" d="M281.7,281.3c-10.5,20.5-17.1,40.5-19.8,60c-3.1,21-0.9,36.2,6.6,45.6c7.5,9.4,17.7,14.1,30.7,14.1
		c15.7,0,31.7-5.8,48.2-17.5c16.4-11.7,31.9-28.6,46.5-50.8c5.8-8.8,11.1-18.3,16-28.6l-6.8,38.3c-3.1,19.5-2.4,33.8,2,42.7
		c4.4,9,12.7,13.5,25,13.5c9.9,0,20.2-3.9,30.7-11.8c10.5-7.8,21.7-18.8,33.6-33c1.1-1.1,1-2.5-0.6-4c-1.5-1.5-2.9-1.7-4-0.6
		c-6.1,6.1-11.9,11-17.2,14.6c-5.4,3.6-10,5.5-13.8,5.5c-7.7,0-9.8-9-6.3-27l33.3-180.8c0.4-0.8-0.5-1.5-2.6-2.3
		c-2.1-0.8-3.5-0.6-4.3,0.6c-4.9,7.5-10.8,13.9-17.7,19.2c-5.1-4.5-10.9-8-17.3-10.3c-8-2.9-15.9-4.3-23.5-4.3
		c-16.1,0-32.8,5.5-50.2,16.4c-17.4,10.9-33.9,25.2-49.3,43C305.3,241.7,292.3,260.8,281.7,281.3z M360.1,205.8
		c10.3-8.8,20.8-13.2,31.6-13.2c11.5,0,19.9,5,25.2,14.9c5.4,10,6.5,23.5,3.4,40.7c-1.9,10.7-5.7,22.5-11.2,35.3
		c-5.5,12.8-12.2,25-20.1,36.4c-7.8,11.5-16.4,20.9-25.5,28.1c-9.2,7.3-18.4,10.9-27.5,10.9c-8.4,0-14.9-4.7-19.5-14.1
		c-4.6-9.4-5-26.1-1.1-50.2c3.4-19.9,9.2-37.5,17.2-52.8C340.6,226.7,349.7,214.6,360.1,205.8z"/>
	<path class="st0" d="M584.4,386.6l3.9-22.4c5.8-30.6,12.7-57.3,20.7-80c9.9-28.1,20.6-49.6,31.8-64.6
		c11.3-14.9,21.9-22.4,31.8-22.4c7.6,0,13,4.1,16.1,12.3c3.1,8.2,2.9,21.7-0.6,40.5l-18.9,101c-1.5,10-3.4,19.1-5.5,27.5
		c-2.1,8.4-3.2,13.4-3.2,14.9c0,1.1,1.3,2.2,4,3.2c2.7,0.9,7.6,1.4,14.9,1.4c20.3,0,31-3.8,32.1-11.5l5.1-28.5
		c5.9-30,12.8-55.6,20.7-77.1c10.3-27.9,21-48.9,32.1-62.8c11.1-14,21.2-20.9,30.4-20.9c7.7,0,12.6,4.4,14.9,13.2
		c2.3,8.8,1.9,22.4-1.1,40.7l-17.2,91.2c-3.1,18.4-2.9,32.3,0.6,41.9c3.4,9.6,11.7,14.3,24.7,14.3c11.1,0,21.8-3.9,32.1-11.8
		c10.3-7.8,21.4-18.8,33.3-33c1.5-1.5,1.5-3.1,0-4.6c-1.5-1.5-3.1-1.5-4.6,0c-6.1,5.7-11.6,10.5-16.4,14.3
		c-4.8,3.8-9.3,5.7-13.5,5.7c-3.4,0-6-1.8-7.7-5.5c-1.7-3.6-1.6-10.8,0.3-21.5l18.4-102.1c5-26,4.3-45.1-2-57.4
		c-6.3-12.2-16.9-18.4-31.8-18.4c-18.4,0-36,8.7-52.8,26.1c-16.2,16.7-30.6,40.7-43.2,71.9l4.2-23.4c4.6-26,3.5-44.9-3.2-56.8
		c-6.7-11.9-17.3-17.8-31.8-17.8c-19.1,0-37.2,9-54.2,27c-16.3,17.2-30.6,41.3-43.1,72.3l8.3-47.6c3.1-15.7,2.7-27.8-1.1-36.4
		c-3.8-8.6-11.9-12.9-24.1-12.9c-10.7,0-21.6,3.5-32.7,10.6c-11.1,7.1-23.5,18.8-37.3,35.3c-1.1,1.5-1,3.2,0.6,4.9
		c1.5,1.7,2.9,1.8,4,0.3c7.3-7.6,13.7-13.4,19.2-17.2c5.5-3.8,10.2-5.7,14.1-5.7c9.2,0,12,9.4,8.6,28.1L542,351
		c-1.5,10-3.4,19.1-5.4,27.5c-2.1,8.4-3.2,13.4-3.2,14.9c0,1.1,1.3,2.2,4,3.2c2.7,0.9,7.6,1.4,14.9,1.4
		C571.8,398.1,582.5,394.2,584.4,386.6z"/>
	<path class="st0" d="M312.1,774.1c9.2,0,19.8,0.5,31.7,1.4c11.9,1,21.9,1.4,29.8,1.4c20.3,0,39.3-3.7,57-11.2
		c17.6-7.5,32.4-17.6,44.3-30.5c11.9-12.9,19.5-27.4,22.7-43.6c3.2-16.5,1.5-31.2-5-43.9c-6.5-12.7-17.2-22.7-32.2-30
		c-9.4-4.6-20.3-7.8-32.6-9.5c16-5.7,29.3-12.9,40-21.8c16.7-13.8,26.9-29.5,30.8-47c2.9-13.7,1.4-25.3-4.3-34.8
		c-5.7-9.5-15.1-16.8-28.1-21.7c-13-4.9-29.6-7.4-49.6-7.4c-9.2,0-18.4,0.5-27.4,1.4c-9.1,1-17.9,1.4-26.5,1.4
		c-9.9,0-19.3-0.2-28.4-0.7c-9.1-0.5-17.4-0.7-25-0.7c-0.3,0-0.7,1-1.2,2.9c-0.5,1.9-0.1,2.9,1.2,2.9c11.8,0,19.4,1.8,22.9,5.2
		c3.5,3.5,4.1,12.2,1.9,26.2L294.9,735c-1.6,8.9-3.8,15.9-6.7,21c-2.9,5.1-6.8,8.6-11.7,10.5c-4.9,1.9-11.5,2.9-19.8,2.9
		c-0.3,0-0.6,1-0.7,2.9c-0.2,1.9,0.1,2.9,0.7,2.9c7.3,0,15.7-0.2,25.3-0.5C291.6,774.3,301.6,774.1,312.1,774.1z M386,499.2
		c2.2-4.9,5.2-8.5,9.1-10.7c3.8-2.2,8.6-3.3,14.3-3.3c11.4,0,20.8,2,28.1,6c7.3,4,12.3,9.9,15,17.6c2.7,7.8,2.6,17.7-0.2,29.8
		c-4.1,19.1-12.3,35.4-24.6,48.9c-12.2,13.5-27.6,20.3-46,20.3c-0.3,0-3.5-0.1-9.5-0.2c-2.2-0.1-4.6-0.1-7.1-0.2l15.7-88.7
		C382.1,510.6,383.8,504.1,386,499.2z M341.7,738.3l20.3-117c2.9-0.3,5.8-0.5,8.5-0.5c6.8-0.2,11.8-0.2,15-0.2
		c27.3,0,45.6,7.2,54.8,21.5c9.2,14.3,11.3,32.7,6.2,55.3c-4.5,21.9-13.1,38.9-26,51c-12.9,12.1-31.1,18.1-54.6,18.1
		c-13,0-20.8-2.2-23.4-6.7C340.1,755.4,339.8,748.2,341.7,738.3z"/>
	<path class="st0" d="M823.6,508.1c-14.7-11-31.2-18.3-49.4-21.7c-18.2-3.4-37.3-3.3-57.1,0.5c-19.9,3.7-39.5,10.9-59,21.6
		c-19.5,10.7-37.8,24.5-54.9,41.6c-22.2,21.9-38.4,44.8-48.7,68.8c-10.3,24-13.6,46.7-9.9,68.1c3.7,21.4,15.1,39.3,34.4,53.8
		c13.8,10.3,29.6,17.4,47.4,21.1c17.8,3.7,36.7,4.1,56.6,1c19.9-3.1,40-9.8,60.4-20.2c20.4-10.4,39.9-24.9,58.5-43.5
		c22.6-22,38.9-44.9,48.7-68.8c9.8-23.9,12.8-46.5,8.8-68C855.2,541,843.4,522.9,823.6,508.1z M815.9,586.8
		c-5.7,16.9-14.5,34.4-26.4,52.4c-11.9,18-26.4,35.5-43.3,52.3c-27.6,27.7-54.5,45.9-80.7,54.8c-26.2,8.8-47.4,7.1-63.7-5.1
		c-11-8.3-17.4-19.4-19.1-33.3c-1.7-13.9,0.4-29.4,6.3-46.4c5.9-17,14.9-34.4,26.9-52.4c12-18,26.2-35.2,42.5-51.6
		c28-27.8,55-46.1,81-54.8c26-8.8,47.1-7.1,63.4,5.2c10.8,8.1,17.1,19.1,18.9,32.9C823.6,554.5,821.6,569.9,815.9,586.8z"/>
	<path class="st0" d="M1048.9,775.1c5.7,0,14.3,0,25.8,0c11.4,0,26.9,0,46.3,0c1,0,1.4-1,1.4-2.9c0-1.9-0.5-2.9-1.4-2.9
		c-10.8,0-21.5-5.1-32.2-15.3c-10.7-10.2-21.9-26.9-33.9-50.3c-11.2-22-24.1-51.4-38.6-88.3c14.7-6.8,27.4-15.8,38.1-26.9
		c12.9-13.4,20.9-29.2,24.1-47.7c3.8-21.3-0.8-37.5-13.8-48.6c-13-11.1-35.6-16.7-67.7-16.7c-6.4,0-14.6,0.5-24.8,1.4
		c-10.2,1-18.9,1.4-26.2,1.4c-10.2,0-20-0.2-29.3-0.7c-9.4-0.5-17.7-0.7-25-0.7c-1.3,0-1.9,1-1.9,2.9c0,1.9,0.6,2.9,1.9,2.9
		c8.9,0,15.4,0.9,19.5,2.6c4.1,1.8,6.5,4.9,7.2,9.5c0.6,4.6,0,11.5-1.9,20.7l-38.6,220.8c-1.6,8.9-3.7,15.7-6.2,20.5
		c-2.5,4.8-6.4,8-11.4,9.8c-5.1,1.8-12.2,2.6-21.5,2.6c-1.3,0-1.9,1-1.9,2.9c0,1.9,0.6,2.9,1.9,2.9c7.3,0,15.8-0.2,25.5-0.5
		c9.7-0.3,19.8-0.5,30.3-0.5c10.8,0,20.7,0.2,29.8,0.5c9.1,0.3,17.4,0.5,25,0.5c1,0,1.4-1,1.4-2.9c0-1.9-0.6-2.9-1.9-2.9
		c-8.6,0-14.9-0.9-18.8-2.6c-4-1.7-6.3-5-6.9-9.8c-0.6-4.8-0.2-11.6,1.4-20.5l19-106.5c2.4,0.1,4.2,0.2,5.4,0.2
		c9.6,0,18.9-0.8,28.1-2.4c10.4,34,20.2,61.7,29.4,83c9.7,22.6,18.2,38.9,25.5,49.1C1039,770,1044.8,775.1,1048.9,775.1z
		 M949.2,616.5c-1.2-0.2-2.3-0.3-3.4-0.5l17.7-99.4c1.9-10.2,3.7-17.4,5.5-21.7c1.7-4.3,4.4-6.9,7.9-7.9c3.5-1,8.7-1.4,15.7-1.4
		c8.3,0,15.6,2.1,21.9,6.2c6.4,4.1,10.9,11,13.6,20.7c2.7,9.7,2.6,22.7-0.2,38.9c-3.5,23.5-10.8,40.4-21.9,50.6
		c-11.1,10.2-27,15.3-47.7,15.3C956.1,617.2,953,617,949.2,616.5z"/>
</g>
</svg>
