<?xml version="1.0" encoding="utf-8"?>
<!-- Generator: Adobe Illustrator 27.3.1, SVG Export Plug-In . SVG Version: 6.00 Build 0)  -->
<svg version="1.1" id="Layer_1" xmlns="http://www.w3.org/2000/svg" xmlns:xlink="http://www.w3.org/1999/xlink" x="0px" y="0px"
	 viewBox="0 0 1198.5 804.5" style="enable-background:new 0 0 1198.5 804.5;" xml:space="preserve">
<style type="text/css">
	.st0{fill:#0066C8;}
</style>
<path class="st0" d="M1038.5,345.6c3.1,4.5,5.3,6.5,6.5,5.9l131.7-97.9c1-1,0.3-3.9-2.1-8.7c-2.4-4.9-5.2-9.7-8.4-14.3
	c-3.2-4.7-5.4-6.5-6.3-5.6l-132.3,98.2c-0.8,0.4,0.1,3.1,2.5,8.2C1032.5,336.3,1035.3,341.1,1038.5,345.6z"/>
<path class="st0" d="M181.1,632.2c2.9-4.6,5.4-9.5,7.7-14.8c2.2-5.2,2.7-8,1.4-8.3L36.6,549.5c-0.7-0.5-2.6,1.7-5.6,6.5
	s-5.5,9.7-7.7,14.8c-2.1,5.1-2.6,7.9-1.5,8.6l153,59.3C176.1,639,178.2,636.8,181.1,632.2z"/>
<path class="st0" d="M194.8,386.6c-14.2,0-24.7-0.9-31.6-2.9c-6.9-1.9-10.9-5.7-12.1-11.5c-1.1-5.7-0.8-14.1,1.1-25.2l46.5-264.5
	c2.3-13.4,5-22.5,8-27.3c3.1-4.8,9.8-7.2,20.1-7.2h6.3c13.8,0,25.4,4,35,12.1c9.6,8,16.5,18.6,20.9,31.8s5.1,27.8,2,43.9
	c-0.4,1.5,0.6,2.4,2.9,2.6c2.3,0.2,3.6-0.5,4-2c0.8-5,2.1-12.5,4-22.7c1.9-10.1,4.1-21.1,6.6-33s5.1-23.1,7.7-33.9
	c2.7-10.7,4.8-19.1,6.3-25.2c0.4-1.5-0.4-2.4-2.3-2.6s-3.3,0.3-4,1.4c-2.7,6.1-7,10-12.9,11.8c-5.9,1.7-14.3,2.6-25,2.6
	c-13,0-27.4,0.3-43,0.9c-15.7,0.6-35,0.9-58,0.9c-18,0-36.4-0.2-55.4-0.6c-18.9-0.4-35.5-0.8-49.6-1.1c-4.2,0-9.2-0.6-14.9-1.7
	c-5.7-1.1-8.2-4.6-7.5-10.3c0.4-1.1-0.5-1.8-2.6-2s-3.5,0.3-4.3,1.4c-1.1,6.9-3,15.7-5.4,26.4c-2.5,10.7-5.1,21.8-7.8,33.3
	s-5.3,22.1-7.7,31.8c-2.5,9.8-4.5,17.3-6,22.7c-0.4,1.1,0.5,1.9,2.6,2.3c2.1,0.4,3.3,0,3.7-1.1c5-16.4,12.5-31.4,22.7-44.8
	c10.1-13.4,21.6-24.2,34.4-32.4C92.6,52.1,105.1,48,117.3,48h6.9c9.6,0,15.6,2.2,18.1,6.6s2.4,13.3-0.3,26.7L95.5,347
	c-1.9,11.1-4.7,19.5-8.3,25.2c-3.6,5.7-9.1,9.6-16.4,11.5s-17.8,2.9-31.6,2.9c-0.8,0-1.1,1.1-1.1,3.4s0.4,3.4,1.1,3.4
	c10.7,0,22.8-0.2,36.1-0.6c13.4-0.4,27.2-0.6,41.3-0.6c15.7,0,29.9,0.2,42.7,0.6s24.6,0.6,35.3,0.6c0.8,0,1.1-1.1,1.1-3.4
	C196,387.7,195.6,386.6,194.8,386.6z"/>
<path class="st0" d="M281.7,281.3c-10.5,20.5-17.1,40.5-19.8,60c-3.1,21-0.9,36.2,6.6,45.6s17.7,14.1,30.7,14.1
	c15.7,0,31.7-5.8,48.2-17.5c16.4-11.7,31.9-28.6,46.5-50.8c5.8-8.8,11.1-18.3,16-28.6l-6.8,38.3c-3.1,19.5-2.4,33.8,2,42.7
	c4.4,9,12.7,13.5,25,13.5c9.9,0,20.2-3.9,30.7-11.8c10.5-7.8,21.7-18.8,33.6-33c1.1-1.1,1-2.5-0.6-4c-1.5-1.5-2.9-1.7-4-0.6
	c-6.1,6.1-11.9,11-17.2,14.6c-5.4,3.6-10,5.5-13.8,5.5c-7.7,0-9.8-9-6.3-27l33.3-180.8c0.4-0.8-0.5-1.5-2.6-2.3s-3.5-0.6-4.3,0.6
	c-4.9,7.5-10.8,13.9-17.7,19.2c-5.1-4.5-10.9-8-17.3-10.3c-8-2.9-15.9-4.3-23.5-4.3c-16.1,0-32.8,5.5-50.2,16.4
	c-17.4,10.9-33.9,25.2-49.3,43C305.3,241.7,292.3,260.8,281.7,281.3z M360.1,205.8c10.3-8.8,20.8-13.2,31.6-13.2
	c11.5,0,19.9,5,25.2,14.9c5.4,10,6.5,23.5,3.4,40.7c-1.9,10.7-5.7,22.5-11.2,35.3s-12.2,25-20.1,36.4c-7.8,11.5-16.4,20.9-25.5,28.1
	c-9.2,7.3-18.4,10.9-27.5,10.9c-8.4,0-14.9-4.7-19.5-14.1s-5-26.1-1.1-50.2c3.4-19.9,9.2-37.5,17.2-52.8
	C340.6,226.7,349.7,214.6,360.1,205.8z"/>
<path class="st0" d="M584.4,386.6l3.9-22.4c5.8-30.6,12.7-57.3,20.7-80c9.9-28.1,20.6-49.6,31.8-64.6c11.3-14.9,21.9-22.4,31.8-22.4
	c7.6,0,13,4.1,16.1,12.3s2.9,21.7-0.6,40.5l-18.9,101c-1.5,10-3.4,19.1-5.5,27.5s-3.2,13.4-3.2,14.9c0,1.1,1.3,2.2,4,3.2
	c2.7,0.9,7.6,1.4,14.9,1.4c20.3,0,31-3.8,32.1-11.5l5.1-28.5c5.9-30,12.8-55.6,20.7-77.1c10.3-27.9,21-48.9,32.1-62.8
	c11.1-14,21.2-20.9,30.4-20.9c7.7,0,12.6,4.4,14.9,13.2c2.3,8.8,1.9,22.4-1.1,40.7l-17.2,91.2c-3.1,18.4-2.9,32.3,0.6,41.9
	c3.4,9.6,11.7,14.3,24.7,14.3c11.1,0,21.8-3.9,32.1-11.8c10.3-7.8,21.4-18.8,33.3-33c1.5-1.5,1.5-3.1,0-4.6s-3.1-1.5-4.6,0
	c-6.1,5.7-11.6,10.5-16.4,14.3c-4.8,3.8-9.3,5.7-13.5,5.7c-3.4,0-6-1.8-7.7-5.5c-1.7-3.6-1.6-10.8,0.3-21.5L863.6,240
	c5-26,4.3-45.1-2-57.4c-6.3-12.2-16.9-18.4-31.8-18.4c-18.4,0-36,8.7-52.8,26.1c-16.2,16.7-30.6,40.7-43.2,71.9l4.2-23.4
	c4.6-26,3.5-44.9-3.2-56.8c-6.7-11.9-17.3-17.8-31.8-17.8c-19.1,0-37.2,9-54.2,27c-16.3,17.2-30.6,41.3-43.1,72.3l8.3-47.6
	c3.1-15.7,2.7-27.8-1.1-36.4c-3.8-8.6-11.9-12.9-24.1-12.9c-10.7,0-21.6,3.5-32.7,10.6c-11.1,7.1-23.5,18.8-37.3,35.3
	c-1.1,1.5-1,3.2,0.6,4.9c1.5,1.7,2.9,1.8,4,0.3c7.3-7.6,13.7-13.4,19.2-17.2s10.2-5.7,14.1-5.7c9.2,0,12,9.4,8.6,28.1L542,351
	c-1.5,10-3.4,19.1-5.4,27.5c-2.1,8.4-3.2,13.4-3.2,14.9c0,1.1,1.3,2.2,4,3.2c2.7,0.9,7.6,1.4,14.9,1.4
	C571.8,398.1,582.5,394.2,584.4,386.6z"/>
<path class="st0" d="M312.1,774.1c9.2,0,19.8,0.5,31.7,1.4c11.9,1,21.9,1.4,29.8,1.4c20.3,0,39.3-3.7,57-11.2
	c17.6-7.5,32.4-17.6,44.3-30.5s19.5-27.4,22.7-43.6c3.2-16.5,1.5-31.2-5-43.9s-17.2-22.7-32.2-30c-9.4-4.6-20.3-7.8-32.6-9.5
	c16-5.7,29.3-12.9,40-21.8c16.7-13.8,26.9-29.5,30.8-47c2.9-13.7,1.4-25.3-4.3-34.8c-5.7-9.5-15.1-16.8-28.1-21.7
	c-13-4.9-29.6-7.4-49.6-7.4c-9.2,0-18.4,0.5-27.4,1.4c-9.1,1-17.9,1.4-26.5,1.4c-9.9,0-19.3-0.2-28.4-0.7s-17.4-0.7-25-0.7
	c-0.3,0-0.7,1-1.2,2.9s-0.1,2.9,1.2,2.9c11.8,0,19.4,1.8,22.9,5.2c3.5,3.5,4.1,12.2,1.9,26.2L294.9,735c-1.6,8.9-3.8,15.9-6.7,21
	c-2.9,5.1-6.8,8.6-11.7,10.5c-4.9,1.9-11.5,2.9-19.8,2.9c-0.3,0-0.6,1-0.7,2.9c-0.2,1.9,0.1,2.9,0.7,2.9c7.3,0,15.7-0.2,25.3-0.5
	C291.6,774.3,301.6,774.1,312.1,774.1z M386,499.2c2.2-4.9,5.2-8.5,9.1-10.7c3.8-2.2,8.6-3.3,14.3-3.3c11.4,0,20.8,2,28.1,6
	c7.3,4,12.3,9.9,15,17.6c2.7,7.8,2.6,17.7-0.2,29.8c-4.1,19.1-12.3,35.4-24.6,48.9c-12.2,13.5-27.6,20.3-46,20.3
	c-0.3,0-3.5-0.1-9.5-0.2c-2.2-0.1-4.6-0.1-7.1-0.2l15.7-88.7C382.1,510.6,383.8,504.1,386,499.2z M341.7,738.3l20.3-117
	c2.9-0.3,5.8-0.5,8.5-0.5c6.8-0.2,11.8-0.2,15-0.2c27.3,0,45.6,7.2,54.8,21.5c9.2,14.3,11.3,32.7,6.2,55.3
	c-4.5,21.9-13.1,38.9-26,51s-31.1,18.1-54.6,18.1c-13,0-20.8-2.2-23.4-6.7C340.1,755.4,339.8,748.2,341.7,738.3z"/>
<path class="st0" d="M823.6,508.1c-14.7-11-31.2-18.3-49.4-21.7c-18.2-3.4-37.3-3.3-57.1,0.5c-19.9,3.7-39.5,10.9-59,21.6
	s-37.8,24.5-54.9,41.6c-22.2,21.9-38.4,44.8-48.7,68.8s-13.6,46.7-9.9,68.1c3.7,21.4,15.1,39.3,34.4,53.8
	c13.8,10.3,29.6,17.4,47.4,21.1c17.8,3.7,36.7,4.1,56.6,1c19.9-3.1,40-9.8,60.4-20.2s39.9-24.9,58.5-43.5
	c22.6-22,38.9-44.9,48.7-68.8c9.8-23.9,12.8-46.5,8.8-68C855.2,541,843.4,522.9,823.6,508.1z M815.9,586.8
	c-5.7,16.9-14.5,34.4-26.4,52.4s-26.4,35.5-43.3,52.3c-27.6,27.7-54.5,45.9-80.7,54.8c-26.2,8.8-47.4,7.1-63.7-5.1
	c-11-8.3-17.4-19.4-19.1-33.3c-1.7-13.9,0.4-29.4,6.3-46.4c5.9-17,14.9-34.4,26.9-52.4s26.2-35.2,42.5-51.6c28-27.8,55-46.1,81-54.8
	c26-8.8,47.1-7.1,63.4,5.2c10.8,8.1,17.1,19.1,18.9,32.9C823.6,554.5,821.6,569.9,815.9,586.8z"/>
<path class="st0" d="M1048.9,775.1c5.7,0,14.3,0,25.8,0c11.4,0,26.9,0,46.3,0c1,0,1.4-1,1.4-2.9s-0.5-2.9-1.4-2.9
	c-10.8,0-21.5-5.1-32.2-15.3s-21.9-26.9-33.9-50.3c-11.2-22-24.1-51.4-38.6-88.3c14.7-6.8,27.4-15.8,38.1-26.9
	c12.9-13.4,20.9-29.2,24.1-47.7c3.8-21.3-0.8-37.5-13.8-48.6s-35.6-16.7-67.7-16.7c-6.4,0-14.6,0.5-24.8,1.4
	c-10.2,1-18.9,1.4-26.2,1.4c-10.2,0-20-0.2-29.3-0.7c-9.4-0.5-17.7-0.7-25-0.7c-1.3,0-1.9,1-1.9,2.9s0.6,2.9,1.9,2.9
	c8.9,0,15.4,0.9,19.5,2.6c4.1,1.8,6.5,4.9,7.2,9.5c0.6,4.6,0,11.5-1.9,20.7l-38.6,220.8c-1.6,8.9-3.7,15.7-6.2,20.5s-6.4,8-11.4,9.8
	c-5.1,1.8-12.2,2.6-21.5,2.6c-1.3,0-1.9,1-1.9,2.9s0.6,2.9,1.9,2.9c7.3,0,15.8-0.2,25.5-0.5s19.8-0.5,30.3-0.5
	c10.8,0,20.7,0.2,29.8,0.5s17.4,0.5,25,0.5c1,0,1.4-1,1.4-2.9s-0.6-2.9-1.9-2.9c-8.6,0-14.9-0.9-18.8-2.6c-4-1.7-6.3-5-6.9-9.8
	c-0.6-4.8-0.2-11.6,1.4-20.5l19-106.5c2.4,0.1,4.2,0.2,5.4,0.2c9.6,0,18.9-0.8,28.1-2.4c10.4,34,20.2,61.7,29.4,83
	c9.7,22.6,18.2,38.9,25.5,49.1C1039,770,1044.8,775.1,1048.9,775.1z M949.2,616.5c-1.2-0.2-2.3-0.3-3.4-0.5l17.7-99.4
	c1.9-10.2,3.7-17.4,5.5-21.7c1.7-4.3,4.4-6.9,7.9-7.9s8.7-1.4,15.7-1.4c8.3,0,15.6,2.1,21.9,6.2c6.4,4.1,10.9,11,13.6,20.7
	c2.7,9.7,2.6,22.7-0.2,38.9c-3.5,23.5-10.8,40.4-21.9,50.6c-11.1,10.2-27,15.3-47.7,15.3C956.1,617.2,953,617,949.2,616.5z"/>
</svg>
