<?xml version="1.0" encoding="utf-8"?>
<!-- Generator: Adobe Illustrator 27.3.1, SVG Export Plug-In . SVG Version: 6.00 Build 0)  -->
<svg version="1.1" id="Layer_1" xmlns="http://www.w3.org/2000/svg" xmlns:xlink="http://www.w3.org/1999/xlink" x="0px" y="0px"
	 viewBox="0 0 1330 1080" style="enable-background:new 0 0 1330 1080;" xml:space="preserve">
<style type="text/css">
	.st0{fill:#0066C8;}
</style>
<g>
	<g>
		<path class="st0" d="M1042.1,347.7c-1.2,0.6-3.3-1.4-6.5-5.9c-3.2-4.5-6-9.3-8.4-14.4c-2.5-5.1-3.3-7.8-2.5-8.2l132.7-98.5
			c1-0.9,3.1,0.9,6.4,5.6c3.2,4.7,6.1,9.5,8.4,14.4c2.4,4.9,3.1,7.8,2.1,8.8L1042.1,347.7z"/>
	</g>
	<g>
		<path class="st0" d="M15.7,576.3c-1.1-0.7-0.6-3.6,1.5-8.6c2.1-5.1,4.7-10,7.7-14.8c3-4.8,4.8-7,5.6-6.5l154.1,59.8
			c1.3,0.3,0.9,3.1-1.4,8.4c-2.3,5.3-4.8,10.2-7.7,14.8c-2.9,4.6-5,6.8-6.3,6.4L15.7,576.3z"/>
	</g>
	<g>
		<path class="st0" d="M141.6,998.5c-4,0-7.7-0.7-11.2-2c-3.5-1.3-6.1-3.9-7.7-7.7c-1.7-3.8-1.8-9.4-0.5-16.7l9.7-52.8
			c1-5.5,1-9,0-10.7c-1-1.7-3.8-2.5-8.5-2.5c-0.7,0-1-0.7-0.9-2c0.1-1.3,0.4-2,0.9-2c8,0,14.5-2.2,19.5-6.7
			c5.1-4.5,9.1-9.5,12.1-15.2c0.3-0.7,1.2-0.9,2.7-0.6c1.5,0.2,2.2,0.7,2,1.4l-15.4,86.9c-1,5.8-0.5,10.1,1.5,12.8
			c2,2.7,5.6,4.1,10.7,4.1c3.3,0,6.7-0.7,10.1-2.2c3.4-1.5,7-3.8,10.8-7c0.3-0.3,0.9-0.2,1.6,0.5c0.7,0.7,0.9,1.2,0.4,1.7
			c-7.6,7.3-14.4,12.6-20.3,15.8C153.2,996.9,147.4,998.5,141.6,998.5z M179.4,911.7c-0.2,0-1.8-0.2-4.9-0.7
			c-3.1-0.5-6.8-1-11.2-1.5c-4.4-0.5-8.9-0.7-13.6-0.7l0.5-7.2c5.6,0,10.8-0.2,15.4-0.5c4.6-0.3,8.7-0.7,12.2-1
			c3.5-0.3,6.1-0.5,8-0.5c0.8,0,1.4,0.3,1.6,1c0.2,0.7,0.3,1.3,0.1,2c-0.2,1.3-1.1,3.2-2.9,5.6C183,910.5,181.2,911.7,179.4,911.7z"
			/>
		<path class="st0" d="M211.5,997.8c-5.5,0-9-2.1-10.7-6.2c-1.7-4.1-1.7-10.2,0-18.2l10.2-51.8c1.7-8.1,0.4-12.2-3.7-12.2
			c-1.7,0-3.7,0.8-6.1,2.5c-2.4,1.7-5.1,4.1-8.1,7.5c-0.7,0.7-1.3,0.6-2-0.1c-0.7-0.7-0.7-1.5-0.2-2.1c6-7.1,11.4-12.2,16.2-15.3
			c4.8-3.1,9.5-4.6,14.2-4.6c5.3,0,8.8,1.9,10.5,5.6c1.7,3.7,1.8,9,0.5,15.8l-10.5,54.8c-0.8,4.6-0.8,7.8,0,9.3
			c0.8,1.6,1.9,2.4,3.2,2.4c1.8,0,3.8-0.8,6-2.5c2.2-1.7,4.6-3.7,7.2-6.2c0.7-0.7,1.3-0.7,2,0c0.7,0.7,0.7,1.3,0,2
			c-5.1,6.1-10,10.9-14.4,14.3C221.2,996.1,216.5,997.8,211.5,997.8z M228.2,871.4c-4.3,0-7.8-1.2-10.3-3.7
			c-2.6-2.5-3.9-6.1-3.9-10.7c0-4,1.3-7.2,3.9-9.7c2.6-2.5,6-3.7,10.3-3.7c4.3,0,7.7,1.2,10.1,3.7c2.4,2.5,3.6,5.7,3.6,9.7
			C241.8,866.6,237.3,871.4,228.2,871.4z"/>
		<path class="st0" d="M266.5,997.6c-3.2,0-5.3-0.2-6.5-0.6c-1.2-0.4-1.7-0.9-1.7-1.4c0-0.7,0.5-2.8,1.4-6.5
			c0.9-3.6,1.7-7.6,2.4-11.9l10.2-55.5c1.5-8.1,0.2-12.2-3.7-12.2c-1.7,0-3.7,0.8-6.1,2.5c-2.4,1.7-5.2,4.1-8.3,7.5
			c-0.5,0.7-1.1,0.6-1.7-0.1c-0.7-0.7-0.7-1.5-0.2-2.1c6-7.1,11.4-12.2,16.2-15.3c4.8-3.1,9.5-4.6,14.2-4.6c5.3,0,8.8,1.9,10.5,5.6
			c1.7,3.7,1.8,9,0.5,15.8l-12.9,73.9C279.6,995.9,274.9,997.6,266.5,997.6z M321.7,997.6c-3.2,0-5.3-0.2-6.5-0.6
			c-1.2-0.4-1.7-0.9-1.7-1.4c0-0.7,0.5-2.8,1.4-6.5c0.9-3.6,1.7-7.6,2.4-11.9l8.2-43.8c1.5-8.1,1.6-14,0.2-17.5
			c-1.3-3.6-3.7-5.4-7-5.4c-4.3,0-8.9,3.2-13.8,9.7c-4.9,6.5-9.5,15.8-13.8,28c-4.3,12.2-7.9,27-10.7,44.4l-4.5-0.2
			c3.1-19.7,7.5-36.8,13.1-51.1c5.6-14.3,12-25.4,19.4-33.2c7.4-7.8,15.2-11.7,23.5-11.7c6.3,0,10.9,2.6,13.8,7.7
			c2.9,5.1,3.4,13.4,1.4,24.6l-11.4,64C335.2,995.9,330.5,997.6,321.7,997.6z M383.5,997.8c-5.6,0-9.2-2.1-10.7-6.2
			c-1.5-4.1-1.6-10.2-0.2-18.2l7.5-39.6c1.3-8,1.5-13.9,0.5-17.7c-1-3.8-3.2-5.7-6.5-5.7c-4,0-8.4,3-13.2,9.1
			c-4.8,6.1-9.5,15.1-13.9,27.3c-4.5,12.1-8.2,27.4-11.2,45.8l-4.5-0.2c3.3-20.2,7.8-37.5,13.4-51.9c5.6-14.3,12.1-25.3,19.4-32.9
			c7.3-7.5,14.9-11.3,22.9-11.3c6.5,0,11.1,2.7,13.8,8c2.7,5.3,3,13.6,0.9,24.9l-8,44.3c-0.8,4.6-0.9,7.8-0.1,9.3
			c0.7,1.6,1.9,2.4,3.4,2.4c1.8,0,3.8-0.8,5.8-2.5c2.1-1.7,4.4-3.7,7.1-6.2c0.7-0.7,1.3-0.7,2,0c0.7,0.7,0.7,1.3,0,2
			c-5.1,6.1-10,10.9-14.4,14.3C392.9,996.1,388.3,997.8,383.5,997.8z"/>
		<path class="st0" d="M458.4,998.5c-9.6,0-17.1-2.4-22.5-7.2c-5.4-4.8-8.9-11-10.5-18.4c-1.6-7.5-1.6-15.3-0.1-23.4
			c1.3-6.5,3.7-12.9,7.2-19.3c3.5-6.4,7.9-12.1,13.2-17.2c5.3-5.1,11.4-9.1,18.2-12.2c6.8-3.1,14.1-4.6,21.9-4.6
			c6.8,0,11.9,1.2,15.3,3.5c3.4,2.3,4.9,5.6,4.6,10c-0.5,4.3-2.7,8.5-6.7,12.4c-4,4-9.3,7.6-15.8,10.7c-6.6,3.2-13.9,5.8-21.9,8.1
			c-8,2.2-16.2,3.8-24.5,4.6l0.5-3.2c11.8-1.8,21.7-4.9,29.6-9.1s12.5-10.3,13.7-18.3c0.7-3.6,0.3-6.6-1.1-8.7
			c-1.4-2.2-3.6-3.2-6.6-3.2c-3.8,0-7.3,1.7-10.3,5.1c-3.1,3.4-5.7,8-8,13.8c-2.2,5.8-3.9,12.3-5.1,19.4c-1.3,8.5-1.4,16.2-0.2,23.1
			c1.2,7,3.7,12.6,7.7,16.8c4,4.2,9.4,6.3,16.2,6.3c3.1,0,6.8-0.6,10.8-1.7c4.1-1.2,7.9-3.1,11.6-6c0.3-0.3,0.8-0.2,1.4,0.5
			c0.6,0.7,0.7,1.2,0.4,1.5c-6.3,6.1-12.8,10.5-19.5,12.9S464.5,998.5,458.4,998.5z"/>
		<path class="st0" d="M556.9,1064c-7.5,0-13.2-1.4-17.2-4.2c-4-2.8-5.6-6.1-5-10c0.5-3.3,1.9-5.8,4.1-7.5c2.2-1.7,4.7-2.5,7.3-2.5
			c4,0,6.7,1,8.1,2.9c1.4,1.9,2.3,4.1,2.6,6.7c0.3,2.6,0.8,4.8,1.4,6.7c0.6,1.9,2,2.9,4.1,2.9c1.7,0,3.1-1.3,4.2-3.9
			c1.2-2.6,2.4-7.6,3.6-15.1c1.2-7.5,2.9-18.4,5.1-32.9l12.7-87.9c0.7-4.1,0.8-7.1,0.4-9c-0.4-1.8-1.6-3-3.5-3.5
			c-1.9-0.5-4.9-0.7-9.1-0.7c-0.7,0-1-0.7-0.9-2c0.1-1.3,0.4-2,0.9-2c5.3,0,9.2-0.7,11.6-2.2c2.4-1.5,3.9-4.3,4.6-8.5
			c2.5-15.1,5.2-27.6,8.2-37.6c3-10,6.6-17.8,10.7-23.5c4.1-5.7,9.1-9.7,14.9-12.1c5.8-2.3,12.6-3.5,20.4-3.5
			c7.5,0,13.2,1.4,17.2,4.1c4,2.7,5.6,6.1,5,10.1c-0.5,3.3-1.9,5.9-4.2,7.7c-2.3,1.8-5,2.7-8,2.7c-4.5,0-7.6-1-9.2-3
			c-1.7-2-2.7-4.2-3-6.7c-0.3-2.5-0.7-4.7-1.2-6.7c-0.5-2-2-3-4.5-3c-5.5,0-10,5.6-13.7,16.8c-3.7,11.2-7.1,27.7-10.5,49.4
			l-16.9,114.5c-2.3,15.9-5.2,28.5-8.6,37.7c-3.4,9.2-7.6,15.8-12.7,19.7C570.9,1062,564.5,1064,556.9,1064z M629.3,911.2
			c-0.2,0-1.9-0.2-5.2-0.7c-3.3-0.5-7.3-1-11.8-1.5c-4.6-0.5-8.8-0.7-12.8-0.7l0.5-6.7c3.8,0,8.2-0.2,13.2-0.5c5-0.3,9.6-0.7,13.8-1
			c4.2-0.3,7.1-0.5,8.6-0.5c0.8,0,1.4,0.3,1.6,1c0.2,0.7,0.3,1.3,0.1,2c-0.3,1.3-1.3,3.1-3,5.4C632.7,910.1,631,911.2,629.3,911.2z"
			/>
		<path class="st0" d="M668.7,999c-9.1,0-16.4-2.4-21.8-7.2c-5.4-4.8-8.9-11.1-10.6-18.9c-1.7-7.8-1.7-16.3,0-25.4
			c2-10.1,5.6-19,11-26.8c5.3-7.7,11.8-13.7,19.4-18c7.6-4.3,15.8-6.5,24.6-6.5c9.3,0,16.7,2.3,22.1,6.8c5.5,4.6,9.1,10.7,11,18.4
			c1.8,7.7,1.7,16.4-0.2,26c-2.2,11.3-6.2,20.8-12.1,28.5c-5.9,7.7-12.7,13.5-20.3,17.3C684.2,997.1,676.5,999,668.7,999z
			 M677.1,992.8c5.3,0,9.9-3.1,13.8-9.3c3.9-6.2,6.8-14.6,8.6-25c1.3-7.5,1.9-14.6,1.9-21.3c-0.1-6.7-0.9-12.7-2.4-18
			c-1.5-5.3-3.6-9.5-6.2-12.4c-2.7-3-5.9-4.5-9.7-4.5c-4.6,0-9,2.8-12.9,8.5c-4,5.6-7.1,14.4-9.2,26.1c-1.3,7.5-1.9,14.6-1.7,21.4
			c0.2,6.8,1,12.8,2.4,17.9c1.4,5.1,3.4,9.2,6.1,12.2C670.3,991.3,673.5,992.8,677.1,992.8z"/>
		<path class="st0" d="M750,997.6c-3.2,0-5.3-0.2-6.5-0.6c-1.2-0.4-1.7-0.9-1.7-1.4c0-0.7,0.5-2.8,1.5-6.5c1-3.6,1.8-7.6,2.5-11.9
			l10.2-55.5c0.5-2.8,0.7-5.1,0.5-6.8c-0.2-1.7-0.6-3.1-1.4-4c-0.7-0.9-1.8-1.4-3.1-1.4c-1.5,0-3.4,0.8-5.8,2.5
			c-2.4,1.7-5.2,4.1-8.3,7.5c-0.7,0.7-1.3,0.6-2-0.1c-0.7-0.7-0.7-1.5,0-2.1c6-7.1,11.4-12.2,16.2-15.3c4.8-3.1,9.5-4.6,14.2-4.6
			c3.6,0,6.4,0.8,8.2,2.5c1.8,1.7,2.9,4.1,3.4,7.2c0.4,3.2,0.2,7.1-0.6,11.7L764,992.6C763.5,995.9,758.8,997.6,750,997.6z
			 M764,992.6l-2.5-0.2c1.7-8.8,3.6-17.7,5.7-26.8c2.2-9,4.5-17.6,7.1-25.8c2.6-8.1,5.4-15.4,8.6-21.8c3.1-6.4,6.6-11.4,10.2-15.2
			c3.6-3.7,7.5-5.6,11.7-5.6c2.7,0,5.4,0.7,8.2,2.1c2.8,1.4,5.1,3.3,7,5.6c1.8,2.3,2.5,4.9,2,7.7c-0.2,2.2-1.2,4.4-3.2,6.7
			c-2,2.3-4.6,3.5-7.7,3.5c-2.5,0-4.6-0.6-6.5-1.9c-1.8-1.2-3.5-2.5-5.1-3.7c-1.6-1.2-3.3-1.9-5.1-1.9c-1.8,0-3.9,1.8-6.2,5.4
			c-2.3,3.6-4.7,8.3-7.1,14.1c-2.4,5.8-4.7,12.2-7,19c-2.2,6.9-4.2,13.7-6,20.5C766.3,981.2,765,987.3,764,992.6z"/>
		<path class="st0" d="M869.2,995.6c-0.7,0-1-0.5-1-1.5s0.3-1.5,1-1.5c4.3,0,9.6-2.5,15.9-7.5c6.3-5,12.4-12.8,18.2-23.4l69.4-123.9
			c0.3-0.7,1.1-0.9,2.4-0.7c1.2,0.2,1.9,0.5,2.1,1l27.1,136.6c0.8,4.5,1.7,8,2.5,10.7c0.8,2.7,2.2,4.5,4.2,5.6
			c2,1.1,5.1,1.6,9.2,1.6c0.7,0,1,0.5,1,1.5s-0.3,1.5-1,1.5c-4.3,0-8.7-0.2-13.1-0.5c-4.4-0.3-9.3-0.5-14.6-0.5
			c-5.1,0-9.7,0.2-13.8,0.5c-4.1,0.3-8.3,0.5-12.6,0.5c-0.7,0-1-0.5-1-1.5s0.3-1.5,1-1.5c6.3,0,10.4-1.2,12.3-3.7
			c1.9-2.5,2.1-7.2,0.6-14.2l-21.2-104.8l13.9-19.2l-62,112.7c-3.8,6.8-5.9,12.4-6.3,16.7c-0.4,4.3,1,7.5,4.1,9.5
			c3.1,2,8.1,3,14.9,3c0.7,0,1,0.5,1,1.5s-0.4,1.5-1.2,1.5c-3.8,0-8.5-0.2-14.1-0.5c-5.6-0.3-11-0.5-16.3-0.5
			c-4.8,0-8.8,0.2-11.8,0.5C877.2,995.4,873.6,995.6,869.2,995.6z M920.3,938.6l3.7-7h54.5l0.5,7H920.3z"/>
		<path class="st0" d="M1033,995.6c-0.7,0-1-0.5-1-1.5s0.3-1.5,1-1.5c4.8,0,8.5-0.5,11.2-1.4c2.7-0.9,4.6-2.6,6-5.1
			c1.3-2.5,2.4-6.1,3.2-10.7l20.2-115.2c1-4.8,1.3-8.4,1-10.8c-0.3-2.4-1.6-4.1-3.7-5c-2.2-0.9-5.6-1.4-10.2-1.4c-0.7,0-1-0.5-1-1.5
			s0.3-1.5,1-1.5c3.8,0,8.2,0.1,13.1,0.4c4.9,0.2,10,0.4,15.3,0.4c3.8,0,8.4-0.2,13.7-0.7c5.3-0.5,9.6-0.7,12.9-0.7
			c16.8,0,28.5,2.9,35.3,8.7c6.8,5.8,9.2,14.3,7.2,25.4c-1.7,9.6-5.8,17.9-12.6,24.9c-6.7,7-14.9,12.3-24.6,16.1s-19.9,5.6-30.5,5.6
			c-0.7,0-1.7,0-3.1-0.1c-1.4-0.1-2.3-0.2-2.6-0.4l1.5-7.7c1,0.5,2.5,0.9,4.5,1.1c2,0.2,3.6,0.4,4.7,0.4c10.8,0,19.1-2.7,24.9-8
			c5.8-5.3,9.6-14.1,11.4-26.4c1.5-8.5,1.5-15.2,0.1-20.3c-1.4-5.1-3.8-8.7-7.1-10.8c-3.3-2.2-7.1-3.2-11.4-3.2
			c-3.7,0-6.4,0.2-8.2,0.7c-1.8,0.5-3.2,1.9-4.1,4.1c-0.9,2.2-1.9,6-2.9,11.3l-20.4,114.7c-0.8,4.6-1.1,8.2-0.7,10.7
			c0.3,2.5,1.5,4.2,3.6,5.1c2.1,0.9,5.4,1.4,9.8,1.4c0.7,0,1,0.5,1,1.5s-0.2,1.5-0.7,1.5c-4,0-8.3-0.1-13.1-0.2
			c-4.7-0.2-9.9-0.2-15.6-0.2c-5.5,0-10.7,0.1-15.8,0.2C1041.2,995.5,1036.8,995.6,1033,995.6z M1142.7,995.6c-2.2,0-5.1-2.7-9-8
			c-3.8-5.3-8.3-13.8-13.3-25.6c-5.1-11.8-10.5-27.3-16.3-46.5l20.2-6.7c8.1,20.9,15.3,37.5,21.5,49.6c6.2,12.2,12.1,21,17.7,26.3
			c5.6,5.3,11.2,8,16.8,8c0.5,0,0.7,0.5,0.7,1.5s-0.2,1.5-0.7,1.5c-10.1,0-18.2,0-24.1,0S1145.7,995.6,1142.7,995.6z"/>
		<path class="st0" d="M1194,995.6c-0.3,0-0.5-0.5-0.5-1.5s0.2-1.5,0.5-1.5c6,0,10.5-0.4,13.7-1.2c3.1-0.8,5.5-2.5,7.1-5
			c1.6-2.5,2.8-6.1,3.6-11l20.2-115.2c1.2-5.8,1.2-9.7,0.1-11.6c-1.1-1.9-3.7-2.9-7.8-2.9h-3c-5.3,0-10.7,1.8-16.3,5.4
			c-5.6,3.6-10.5,8.3-14.9,14.1c-4.4,5.8-7.7,12.3-9.8,19.4c-0.2,0.5-0.7,0.7-1.6,0.5c-0.9-0.2-1.3-0.5-1.1-1
			c0.7-2.3,1.5-5.6,2.6-9.8c1.1-4.2,2.2-8.8,3.4-13.8c1.2-5,2.3-9.8,3.4-14.4c1.1-4.6,1.9-8.5,2.4-11.4c0.3-0.5,1-0.7,1.9-0.6
			c0.9,0.1,1.3,0.4,1.1,0.9c-0.3,2.5,0.7,4,3.2,4.5c2.5,0.5,4.6,0.7,6.5,0.7c6.1,0.2,13.3,0.3,21.5,0.5c8.2,0.2,16.2,0.2,24,0.2
			c10,0,18.3-0.1,25.1-0.4c6.8-0.2,13-0.4,18.7-0.4c4.6,0,8.3-0.4,10.8-1.1c2.6-0.7,4.4-2.4,5.6-5.1c0.3-0.5,0.9-0.7,1.7-0.6
			c0.8,0.1,1.2,0.5,1,1.1c-0.7,2.7-1.6,6.3-2.7,11c-1.2,4.6-2.3,9.5-3.4,14.7c-1.1,5.1-2,9.9-2.9,14.3c-0.8,4.4-1.4,7.7-1.7,9.8
			c-0.2,0.7-0.7,1-1.7,0.9c-1-0.1-1.4-0.5-1.2-1.1c1.3-7,1-13.3-0.9-19c-1.9-5.7-4.9-10.3-9.1-13.8c-4.2-3.5-9.2-5.2-15.2-5.2h-2.7
			c-4.5,0-7.4,1-8.7,3.1c-1.3,2.1-2.5,6-3.5,11.8L1243,975.4c-0.8,4.8-1,8.5-0.5,11c0.5,2.5,2.2,4.1,5.2,5c3,0.8,7.5,1.2,13.7,1.2
			c0.3,0,0.5,0.5,0.5,1.5s-0.2,1.5-0.5,1.5c-4.7,0-9.7-0.1-15.3-0.2c-5.6-0.2-11.7-0.2-18.5-0.2c-6.1,0-12.1,0.1-17.9,0.2
			C1203.9,995.5,1198.7,995.6,1194,995.6z"/>
	</g>
	<g>
		<path class="st0" d="M33.3,389.8c-0.8,0-1.2-1.2-1.2-3.5c0-2.3,0.4-3.5,1.2-3.5c13.8,0,24.4-1,31.7-2.9
			c7.3-1.9,12.8-5.8,16.4-11.5c3.6-5.8,6.4-14.2,8.3-25.3l46.6-266.5c2.7-13.4,2.8-22.3,0.3-26.8c-2.5-4.4-8.5-6.6-18.1-6.6h-6.9
			c-12.3,0-24.9,4.1-37.7,12.4C61,63.9,49.5,74.7,39.4,88.2c-10.2,13.4-17.8,28.4-22.7,44.9c-0.4,1.2-1.6,1.5-3.7,1.2
			c-2.1-0.4-3-1.2-2.6-2.3c1.5-5.4,3.5-13,6-22.7c2.5-9.8,5.1-20.4,7.8-31.9c2.7-11.5,5.3-22.6,7.8-33.4c2.5-10.7,4.3-19.6,5.5-26.5
			c0.8-1.2,2.2-1.6,4.3-1.4c2.1,0.2,3,0.9,2.6,2c-0.8,5.8,1.7,9.2,7.5,10.4c5.8,1.2,10.7,1.7,15,1.7c14.2,0.4,30.8,0.8,49.8,1.2
			c19,0.4,37.5,0.6,55.5,0.6c23,0,42.4-0.3,58.1-0.9c15.7-0.6,30.1-0.9,43.2-0.9c10.7,0,19.1-0.9,25-2.6c5.9-1.7,10.3-5.7,12.9-11.8
			c0.8-1.2,2.1-1.6,4-1.4c1.9,0.2,2.7,1.1,2.3,2.6c-1.5,6.1-3.7,14.6-6.3,25.3c-2.7,10.7-5.3,22.1-7.8,34
			c-2.5,11.9-4.7,22.9-6.6,33.1c-1.9,10.2-3.3,17.8-4,22.7c-0.4,1.5-1.7,2.2-4,2c-2.3-0.2-3.3-1.1-2.9-2.6c3.1-16.1,2.4-30.8-2-44
			c-4.4-13.2-11.4-23.9-21-31.9c-9.6-8.1-21.3-12.1-35.1-12.1h-6.3c-10.4,0-17.1,2.4-20.1,7.2c-3.1,4.8-5.8,13.9-8.1,27.3
			l-46.6,265.4c-1.9,11.1-2.3,19.6-1.2,25.3c1.2,5.8,5.2,9.6,12.1,11.5c6.9,1.9,17.5,2.9,31.7,2.9c0.8,0,1.2,1.2,1.2,3.5
			c0,2.3-0.4,3.5-1.2,3.5c-10.7,0-22.5-0.2-35.4-0.6c-12.9-0.4-27.2-0.6-42.9-0.6c-14.2,0-28,0.2-41.4,0.6
			C56.1,389.6,44.1,389.8,33.3,389.8z"/>
		<path class="st0" d="M294.1,397.3c-13.1,0-23.3-4.7-30.8-14.1c-7.5-9.4-9.7-24.7-6.6-45.8c2.7-19.6,9.3-39.6,19.9-60.2
			c10.5-20.5,23.6-39.7,39.1-57.6c15.5-17.8,32-32.2,49.5-43.2c17.5-10.9,34.3-16.4,50.4-16.4c7.7,0,15.5,1.4,23.6,4.3
			c8.1,2.9,15.1,7.5,21,13.8c5.9,6.3,9.3,14.7,10.1,25l-34.5-19c6.5-0.8,13.3-3.8,20.4-9.2c7.1-5.4,13.1-11.9,18.1-19.6
			c0.8-1.2,2.2-1.3,4.3-0.6c2.1,0.8,3,1.5,2.6,2.3l-33.4,181.3c-3.5,18-1.4,27.1,6.3,27.1c3.8,0,8.4-1.8,13.8-5.5
			c5.4-3.6,11.1-8.5,17.3-14.7c1.2-1.2,2.5-1,4,0.6c1.5,1.5,1.7,2.9,0.6,4c-11.9,14.2-23.1,25.2-33.7,33.1
			c-10.6,7.9-20.8,11.8-30.8,11.8c-12.3,0-20.6-4.5-25-13.5c-4.4-9-5.1-23.3-2-42.9l14.4-80.6l12.1-9.8
			c-9.2,31.5-21.1,58.3-35.7,80.6c-14.6,22.3-30.1,39.2-46.6,50.9C325.9,391.4,309.8,397.3,294.1,397.3z M330.9,355.2
			c9.2,0,18.4-3.6,27.6-10.9c9.2-7.3,17.7-16.7,25.6-28.2c7.9-11.5,14.6-23.7,20.1-36.6c5.6-12.9,9.3-24.7,11.2-35.4
			c3.1-17.3,1.9-30.9-3.5-40.9c-5.4-10-13.8-15-25.3-15c-10.7,0-21.3,4.4-31.7,13.2c-10.4,8.8-19.6,20.9-27.6,36.3
			c-8.1,15.4-13.8,33-17.3,53c-3.8,24.2-3.5,41,1.2,50.4C315.9,350.5,322.5,355.2,330.9,355.2z"/>
		<path class="st0" d="M547.9,394.4c-7.3,0-12.3-0.5-15-1.4c-2.7-1-4-2-4-3.2c0-1.5,1.1-6.5,3.2-15c2.1-8.4,3.9-17.6,5.5-27.6
			l23.6-128.4c3.5-18.8,0.6-28.2-8.6-28.2c-3.8,0-8.5,1.9-14.1,5.8c-5.6,3.8-12,9.6-19.3,17.3c-1.2,1.5-2.5,1.4-4-0.3
			c-1.5-1.7-1.7-3.4-0.6-4.9c13.8-16.5,26.3-28.3,37.4-35.4c11.1-7.1,22.1-10.6,32.8-10.6c12.3,0,20.3,4.3,24.2,13
			c3.8,8.6,4.2,20.8,1.2,36.6l-29.9,171C578.2,390.5,567.5,394.4,547.9,394.4z M675.7,394.4c-7.3,0-12.3-0.5-15-1.4
			c-2.7-1-4-2-4-3.2c0-1.5,1.1-6.5,3.2-15c2.1-8.4,3.9-17.6,5.5-27.6l19-101.3c3.5-18.8,3.6-32.3,0.6-40.6
			c-3.1-8.2-8.4-12.4-16.1-12.4c-10,0-20.6,7.5-31.9,22.4c-11.3,15-22,36.6-31.9,64.8c-10,28.2-18.2,62.5-24.7,102.7l-10.4-0.6
			c7.3-45.7,17.4-85.1,30.2-118.3c12.9-33.2,27.8-58.8,44.9-76.8c17.1-18,35.2-27.1,54.4-27.1c14.6,0,25.2,6,31.9,17.8
			c6.7,11.9,7.8,30.9,3.2,57l-26.5,147.9C706.8,390.5,696,394.4,675.7,394.4z M818.4,395c-13,0-21.3-4.8-24.8-14.4
			c-3.5-9.6-3.7-23.6-0.6-42l17.3-91.5c3.1-18.4,3.5-32,1.1-40.9c-2.3-8.8-7.3-13.2-15-13.2c-9.2,0-19.4,7-30.5,21
			c-11.1,14-21.9,35-32.2,63c-10.4,28-19,63.3-25.9,105.9l-10.4-0.6c7.7-46.8,18-86.8,31.1-120c13-33.2,28-58.5,44.9-76
			c16.9-17.5,34.5-26.2,53-26.2c15,0,25.6,6.1,31.9,18.4c6.3,12.3,7,31.5,2,57.6L842,338.5c-1.9,10.7-2,17.9-0.3,21.6
			c1.7,3.7,4.3,5.5,7.8,5.5c4.2,0,8.7-1.9,13.5-5.8c4.8-3.8,10.3-8.6,16.4-14.4c1.5-1.5,3.1-1.5,4.6,0c1.5,1.5,1.5,3.1,0,4.6
			c-11.9,14.2-23,25.2-33.4,33.1C840.3,391,829.6,395,818.4,395z"/>
	</g>
	<g>
		<path class="st0" d="M393.6,613.3l6.2-9.6c22.3,0,41,3.7,56,11c15,7.3,25.7,17.4,32.3,30.1c6.5,12.8,8.2,27.4,5,44
			c-3.2,16.3-10.8,30.9-22.7,43.8c-12,12.9-26.8,23.1-44.5,30.6c-17.7,7.5-36.8,11.2-57.2,11.2c-8,0-17.9-0.5-29.9-1.4
			c-12-1-22.6-1.4-31.8-1.4c-10.5,0-20.6,0.2-30.1,0.5c-9.6,0.3-18,0.5-25.4,0.5c-0.6,0-0.9-1-0.7-2.9c0.2-1.9,0.4-2.9,0.7-2.9
			c8.3,0,14.9-1,19.9-2.9c4.9-1.9,8.9-5.4,11.7-10.5c2.9-5.1,5.1-12.1,6.7-21L329,510.9c2.2-14,1.6-22.8-1.9-26.3
			c-3.5-3.5-11.2-5.3-23-5.3c-1.3,0-1.7-1-1.2-2.9c0.5-1.9,0.9-2.9,1.2-2.9c7.7,0,16,0.2,25.1,0.7c9.1,0.5,18.6,0.7,28.5,0.7
			c8.6,0,17.5-0.5,26.5-1.4c9.1-1,18.3-1.4,27.5-1.4c20.1,0,36.7,2.5,49.8,7.4c13.1,4.9,22.5,12.2,28.2,21.8
			c5.7,9.6,7.2,21.2,4.3,34.9c-3.8,17.5-14.1,33.2-30.9,47.1C446.4,597.3,423.2,607.2,393.6,613.3z M361,764
			c23.6,0,41.9-6.1,54.8-18.2c12.9-12.1,21.6-29.2,26.1-51.2c5.1-22.6,3-41.1-6.2-55.5c-9.3-14.4-27.6-21.5-55-21.5
			c-3.2,0-8.2,0.1-15.1,0.2c-6.9,0.2-14.4,1-22.7,2.6l14.8-5.7l-21,121c-1.9,9.9-1.6,17.1,1,21.5C340.1,761.7,348,764,361,764z
			 M404.6,481.7c-5.7,0-10.5,1.1-14.4,3.3c-3.8,2.2-6.9,5.8-9.1,10.8c-2.2,4.9-4,11.4-5.3,19.4l-16.3,91.8l-15.3-3.3
			c9.2,0.3,16.9,0.6,23,0.7c6.1,0.2,9.2,0.2,9.6,0.2c18.5,0,33.9-6.8,46.2-20.3c12.3-13.6,20.5-29.9,24.6-49
			c2.9-12.1,2.9-22.1,0.2-29.9c-2.7-7.8-7.7-13.7-15.1-17.7C425.4,483.7,416,481.7,404.6,481.7z"/>
		<path class="st0" d="M574.7,738.2c-19.3-14.5-30.9-32.5-34.5-54c-3.7-21.5-0.4-44.2,10-68.3c10.3-24.1,26.6-47.1,48.9-69
			c17.2-17.2,35.6-31.1,55.1-41.8c19.5-10.7,39.3-17.9,59.2-21.6c19.9-3.7,39-3.9,57.3-0.5c18.3,3.4,34.8,10.7,49.6,21.7
			c19.8,14.9,31.7,33,35.7,54.5c4,21.5,1.1,44.2-8.8,68.2c-9.9,24-26.2,47-48.9,69c-18.7,18.6-38.2,33.2-58.7,43.6
			c-20.4,10.4-40.6,17.2-60.6,20.3c-19.9,3.1-38.9,2.7-56.7-1C604.3,755.6,588.5,748.5,574.7,738.2z M597.6,738.6
			c16.3,12.3,37.6,14,63.9,5.1c26.3-8.9,53.2-27.2,80.9-54.9c17-16.9,31.5-34.4,43.4-52.5c12-18.1,20.8-35.6,26.5-52.6
			c5.7-17,7.7-32.4,5.8-46.2c-1.8-13.8-8.2-24.8-19-33c-16.3-12.3-37.5-14-63.6-5.2c-26,8.8-53.1,27.1-81.3,55
			c-16.4,16.5-30.6,33.8-42.7,51.8c-12.1,18-21.1,35.5-27,52.5c-6,17-8.1,32.5-6.3,46.5C580.1,719.2,586.5,730.3,597.6,738.6z"/>
		<path class="st0" d="M835.1,772.6c-1.3,0-1.9-1-1.9-2.9c0-1.9,0.6-2.9,1.9-2.9c9.2,0,16.4-0.9,21.5-2.6c5.1-1.7,8.9-5,11.5-9.8
			c2.5-4.8,4.6-11.6,6.2-20.6l38.7-221.5c1.9-9.2,2.5-16.2,1.9-20.8c-0.6-4.6-3-7.8-7.2-9.6c-4.1-1.7-10.7-2.6-19.6-2.6
			c-1.3,0-1.9-1-1.9-2.9c0-1.9,0.6-2.9,1.9-2.9c7.3,0,15.7,0.2,25.1,0.7c9.4,0.5,19.2,0.7,29.4,0.7c7.3,0,16.1-0.5,26.3-1.4
			c10.2-1,18.5-1.4,24.9-1.4c32.2,0,54.9,5.6,67.9,16.7c13.1,11.2,17.7,27.4,13.9,48.8c-3.2,18.5-11.2,34.4-24.2,47.8
			c-12.9,13.4-28.7,23.7-47.4,30.9c-18.7,7.2-38.2,10.8-58.6,10.8c-1.3,0-3.3-0.1-6-0.2c-2.7-0.2-4.4-0.4-5-0.7l2.9-14.8
			c1.9,1,4.8,1.7,8.6,2.2c3.8,0.5,6.9,0.7,9.1,0.7c20.7,0,36.7-5.1,47.8-15.3c11.2-10.2,18.5-27.1,22-50.7c2.9-16.3,2.9-29.3,0.2-39
			c-2.7-9.7-7.3-16.7-13.6-20.8c-6.4-4.1-13.7-6.2-22-6.2c-7,0-12.3,0.5-15.8,1.4c-3.5,1-6.1,3.6-7.9,7.9
			c-1.8,4.3-3.6,11.6-5.5,21.8l-39.2,220.5c-1.6,8.9-2.1,15.8-1.4,20.6c0.6,4.8,2.9,8.1,6.9,9.8c4,1.8,10.3,2.6,18.9,2.6
			c1.3,0,1.9,1,1.9,2.9c0,1.9-0.5,2.9-1.4,2.9c-7.7,0-16-0.2-25.1-0.5c-9.1-0.3-19.1-0.5-29.9-0.5c-10.5,0-20.6,0.2-30.4,0.5
			C851,772.4,842.4,772.6,835.1,772.6z M1046.1,772.6c-4.1,0-9.9-5.1-17.2-15.3c-7.3-10.2-15.9-26.6-25.6-49.3
			c-9.7-22.6-20.2-52.5-31.3-89.5l38.8-12.9c15.6,40.2,29.4,72,41.4,95.4c12,23.4,23.3,40.3,34,50.5c10.7,10.2,21.4,15.3,32.3,15.3
			c1,0,1.4,1,1.4,2.9c0,1.9-0.5,2.9-1.4,2.9c-19.5,0-34.9,0-46.4,0S1051.8,772.6,1046.1,772.6z"/>
	</g>
</g>
</svg>
